ISO-10303-21;
HEADER;
FILE_DESCRIPTION((''),'2;1');
FILE_NAME('C-1742361-1','2014-04-26T',('workeradm'),('Tyco Electronics Ltd.'),
'PRO/ENGINEER BY PARAMETRIC TECHNOLOGY CORPORATION, 2013050',
'PRO/ENGINEER BY PARAMETRIC TECHNOLOGY CORPORATION, 2013050','');
FILE_SCHEMA(('AUTOMOTIVE_DESIGN { 1 0 10303 214 1 1 1 1 }'));
ENDSEC;
DATA;
#134=CARTESIAN_POINT('',(0.E0,0.E0,-3.174999999999E0));
#135=DIRECTION('',(0.E0,1.E0,0.E0));
#136=DIRECTION('',(-1.E0,0.E0,0.E0));
#137=AXIS2_PLACEMENT_3D('',#134,#135,#136);
#139=CARTESIAN_POINT('',(0.E0,0.E0,-3.174999999999E0));
#140=DIRECTION('',(0.E0,1.E0,0.E0));
#141=DIRECTION('',(1.E0,0.E0,0.E0));
#142=AXIS2_PLACEMENT_3D('',#139,#140,#141);
#144=CARTESIAN_POINT('',(-2.456523002593E0,0.E0,-1.26365E1));
#145=DIRECTION('',(0.E0,-1.E0,0.E0));
#146=DIRECTION('',(0.E0,0.E0,-1.E0));
#147=AXIS2_PLACEMENT_3D('',#144,#145,#146);
#149=DIRECTION('',(1.E0,0.E0,0.E0));
#150=VECTOR('',#149,1.669539948139E-1);
#151=CARTESIAN_POINT('',(-2.623476997407E0,0.E0,-1.2954E1));
#152=LINE('',#151,#150);
#153=CARTESIAN_POINT('',(-2.623476997407E0,0.E0,-1.26365E1));
#154=DIRECTION('',(0.E0,-1.E0,0.E0));
#155=DIRECTION('',(-9.941307983616E-1,0.E0,-1.081848221747E-1));
#156=AXIS2_PLACEMENT_3D('',#153,#154,#155);
#158=DIRECTION('',(1.081848221746E-1,0.E0,-9.941307983616E-1));
#159=VECTOR('',#158,1.886923415040E0);
#160=CARTESIAN_POINT('',(-3.14325E0,0.E0,-1.0795E1));
#161=LINE('',#160,#159);
#162=DIRECTION('',(0.E0,0.E0,-1.E0));
#163=VECTOR('',#162,2.921E0);
#164=CARTESIAN_POINT('',(-3.14325E0,0.E0,-7.874E0));
#165=LINE('',#164,#163);
#166=DIRECTION('',(1.E0,0.E0,0.E0));
#167=VECTOR('',#166,4.254499999999E-1);
#168=CARTESIAN_POINT('',(-3.5687E0,0.E0,-7.874E0));
#169=LINE('',#168,#167);
#170=DIRECTION('',(0.E0,0.E0,-1.E0));
#171=VECTOR('',#170,1.524E0);
#172=CARTESIAN_POINT('',(-3.5687E0,0.E0,-6.35E0));
#173=LINE('',#172,#171);
#174=DIRECTION('',(-1.E0,0.E0,0.E0));
#175=VECTOR('',#174,1.1938E0);
#176=CARTESIAN_POINT('',(-2.3749E0,0.E0,-6.35E0));
#177=LINE('',#176,#175);
#178=DIRECTION('',(0.E0,0.E0,-1.E0));
#179=VECTOR('',#178,5.461E0);
#180=CARTESIAN_POINT('',(-2.3749E0,0.E0,-8.89E-1));
#181=LINE('',#180,#179);
#182=DIRECTION('',(1.E0,0.E0,0.E0));
#183=VECTOR('',#182,4.7498E0);
#184=CARTESIAN_POINT('',(-2.3749E0,0.E0,-8.89E-1));
#185=LINE('',#184,#183);
#186=DIRECTION('',(0.E0,0.E0,1.E0));
#187=VECTOR('',#186,5.461E0);
#188=CARTESIAN_POINT('',(2.3749E0,0.E0,-6.35E0));
#189=LINE('',#188,#187);
#190=DIRECTION('',(-1.E0,0.E0,0.E0));
#191=VECTOR('',#190,1.1938E0);
#192=CARTESIAN_POINT('',(3.5687E0,0.E0,-6.35E0));
#193=LINE('',#192,#191);
#194=DIRECTION('',(0.E0,0.E0,1.E0));
#195=VECTOR('',#194,1.524E0);
#196=CARTESIAN_POINT('',(3.5687E0,0.E0,-7.874E0));
#197=LINE('',#196,#195);
#198=DIRECTION('',(1.E0,0.E0,0.E0));
#199=VECTOR('',#198,4.254499999999E-1);
#200=CARTESIAN_POINT('',(3.14325E0,0.E0,-7.874E0));
#201=LINE('',#200,#199);
#202=DIRECTION('',(0.E0,0.E0,1.E0));
#203=VECTOR('',#202,2.921E0);
#204=CARTESIAN_POINT('',(3.14325E0,0.E0,-1.0795E1));
#205=LINE('',#204,#203);
#206=DIRECTION('',(1.081848221746E-1,0.E0,9.941307983616E-1));
#207=VECTOR('',#206,1.886923415040E0);
#208=CARTESIAN_POINT('',(2.939113525887E0,0.E0,-1.267084868104E1));
#209=LINE('',#208,#207);
#210=CARTESIAN_POINT('',(2.623476997407E0,0.E0,-1.26365E1));
#211=DIRECTION('',(0.E0,-1.E0,0.E0));
#212=DIRECTION('',(0.E0,0.E0,-1.E0));
#213=AXIS2_PLACEMENT_3D('',#210,#211,#212);
#215=DIRECTION('',(1.E0,0.E0,0.E0));
#216=VECTOR('',#215,1.669539948139E-1);
#217=CARTESIAN_POINT('',(2.456523002593E0,0.E0,-1.2954E1));
#218=LINE('',#217,#216);
#219=CARTESIAN_POINT('',(2.456523002593E0,0.E0,-1.26365E1));
#220=DIRECTION('',(0.E0,-1.E0,0.E0));
#221=DIRECTION('',(-9.941307983616E-1,0.E0,-1.081848221746E-1));
#222=AXIS2_PLACEMENT_3D('',#219,#220,#221);
#224=DIRECTION('',(1.081848221746E-1,0.E0,-9.941307983616E-1));
#225=VECTOR('',#224,1.886923415040E0);
#226=CARTESIAN_POINT('',(1.93675E0,0.E0,-1.0795E1));
#227=LINE('',#226,#225);
#228=DIRECTION('',(0.E0,0.E0,-1.E0));
#229=VECTOR('',#228,2.667E0);
#230=CARTESIAN_POINT('',(1.93675E0,0.E0,-8.128E0));
#231=LINE('',#230,#229);
#232=CARTESIAN_POINT('',(1.68275E0,0.E0,-8.128E0));
#233=DIRECTION('',(0.E0,-1.E0,0.E0));
#234=DIRECTION('',(1.E0,0.E0,0.E0));
#235=AXIS2_PLACEMENT_3D('',#232,#233,#234);
#237=DIRECTION('',(1.218693434051E-1,0.E0,9.925461516413E-1));
#238=VECTOR('',#237,2.303167460999E-1);
#239=CARTESIAN_POINT('',(1.400681449378E0,0.E0,-8.3566E0));
#240=LINE('',#239,#238);
#241=DIRECTION('',(1.218693434052E-1,0.E0,-9.925461516413E-1));
#242=VECTOR('',#241,2.303167460999E-1);
#243=CARTESIAN_POINT('',(2.54E-1,0.E0,-8.128E0));
#244=LINE('',#243,#242);
#245=CARTESIAN_POINT('',(0.E0,0.E0,-8.128E0));
#246=DIRECTION('',(0.E0,-1.E0,0.E0));
#247=DIRECTION('',(1.E0,0.E0,-1.538576790032E-13));
#248=AXIS2_PLACEMENT_3D('',#245,#246,#247);
#250=DIRECTION('',(1.218693434052E-1,0.E0,9.925461516413E-1));
#251=VECTOR('',#250,2.303167460999E-1);
#252=CARTESIAN_POINT('',(-2.820685506224E-1,0.E0,-8.3566E0));
#253=LINE('',#252,#251);
#254=DIRECTION('',(1.218693434052E-1,0.E0,-9.925461516413E-1));
#255=VECTOR('',#254,2.303167460999E-1);
#256=CARTESIAN_POINT('',(-1.42875E0,0.E0,-8.128E0));
#257=LINE('',#256,#255);
#258=CARTESIAN_POINT('',(-1.68275E0,0.E0,-8.128E0));
#259=DIRECTION('',(0.E0,-1.E0,0.E0));
#260=DIRECTION('',(1.E0,0.E0,0.E0));
#261=AXIS2_PLACEMENT_3D('',#258,#259,#260);
#263=DIRECTION('',(0.E0,0.E0,1.E0));
#264=VECTOR('',#263,2.667E0);
#265=CARTESIAN_POINT('',(-1.93675E0,0.E0,-1.0795E1));
#266=LINE('',#265,#264);
#267=DIRECTION('',(1.081848221746E-1,0.E0,9.941307983616E-1));
#268=VECTOR('',#267,1.886923415040E0);
#269=CARTESIAN_POINT('',(-2.140886474113E0,0.E0,-1.267084868104E1));
#270=LINE('',#269,#268);
#271=DIRECTION('',(0.E0,-1.E0,0.E0));
#272=VECTOR('',#271,7.874E-1);
#273=CARTESIAN_POINT('',(6.985E-1,7.874E-1,-3.174999999999E0));
#274=LINE('',#273,#272);
#275=DIRECTION('',(0.E0,-1.E0,0.E0));
#276=VECTOR('',#275,7.874E-1);
#277=CARTESIAN_POINT('',(-6.985E-1,7.874E-1,-3.174999999999E0));
#278=LINE('',#277,#276);
#279=CARTESIAN_POINT('',(0.E0,7.874E-1,-3.174999999999E0));
#280=DIRECTION('',(0.E0,1.E0,0.E0));
#281=DIRECTION('',(-1.E0,0.E0,0.E0));
#282=AXIS2_PLACEMENT_3D('',#279,#280,#281);
#284=CARTESIAN_POINT('',(0.E0,7.874E-1,-3.174999999999E0));
#285=DIRECTION('',(0.E0,1.E0,0.E0));
#286=DIRECTION('',(1.E0,0.E0,0.E0));
#287=AXIS2_PLACEMENT_3D('',#284,#285,#286);
#289=CARTESIAN_POINT('',(-2.456523002593E0,7.874E-1,-1.26365E1));
#290=DIRECTION('',(0.E0,1.E0,0.E0));
#291=DIRECTION('',(9.941307983616E-1,0.E0,-1.081848221747E-1));
#292=AXIS2_PLACEMENT_3D('',#289,#290,#291);
#294=DIRECTION('',(1.081848221746E-1,0.E0,9.941307983616E-1));
#295=VECTOR('',#294,1.886923415040E0);
#296=CARTESIAN_POINT('',(-2.140886474113E0,7.874E-1,-1.267084868104E1));
#297=LINE('',#296,#295);
#298=DIRECTION('',(0.E0,0.E0,1.E0));
#299=VECTOR('',#298,2.667E0);
#300=CARTESIAN_POINT('',(-1.93675E0,7.874E-1,-1.0795E1));
#301=LINE('',#300,#299);
#302=CARTESIAN_POINT('',(-1.68275E0,7.874E-1,-8.128E0));
#303=DIRECTION('',(0.E0,-1.E0,0.E0));
#304=DIRECTION('',(1.E0,0.E0,6.364113086040E-13));
#305=AXIS2_PLACEMENT_3D('',#302,#303,#304);
#307=DIRECTION('',(1.218693434052E-1,0.E0,-9.925461516413E-1));
#308=VECTOR('',#307,2.303167460999E-1);
#309=CARTESIAN_POINT('',(-1.42875E0,7.874E-1,-8.128E0));
#310=LINE('',#309,#308);
#311=DIRECTION('',(-1.E0,0.E0,0.E0));
#312=VECTOR('',#311,1.118612898755E0);
#313=CARTESIAN_POINT('',(-2.820685506224E-1,7.874E-1,-8.3566E0));
#314=LINE('',#313,#312);
#315=DIRECTION('',(1.218693434052E-1,0.E0,9.925461516413E-1));
#316=VECTOR('',#315,2.303167460999E-1);
#317=CARTESIAN_POINT('',(-2.820685506224E-1,7.874E-1,-8.3566E0));
#318=LINE('',#317,#316);
#319=CARTESIAN_POINT('',(0.E0,7.874E-1,-8.128E0));
#320=DIRECTION('',(0.E0,-1.E0,0.E0));
#321=DIRECTION('',(1.E0,0.E0,0.E0));
#322=AXIS2_PLACEMENT_3D('',#319,#320,#321);
#324=DIRECTION('',(1.218693434052E-1,0.E0,-9.925461516413E-1));
#325=VECTOR('',#324,2.303167460999E-1);
#326=CARTESIAN_POINT('',(2.54E-1,7.874E-1,-8.128E0));
#327=LINE('',#326,#325);
#328=DIRECTION('',(1.E0,0.E0,0.E0));
#329=VECTOR('',#328,1.118612898755E0);
#330=CARTESIAN_POINT('',(2.820685506224E-1,7.874E-1,-8.3566E0));
#331=LINE('',#330,#329);
#332=DIRECTION('',(1.218693434051E-1,0.E0,9.925461516413E-1));
#333=VECTOR('',#332,2.303167460998E-1);
#334=CARTESIAN_POINT('',(1.400681449378E0,7.874E-1,-8.3566E0));
#335=LINE('',#334,#333);
#336=CARTESIAN_POINT('',(1.68275E0,7.874E-1,-8.128E0));
#337=DIRECTION('',(0.E0,-1.E0,0.E0));
#338=DIRECTION('',(1.E0,0.E0,0.E0));
#339=AXIS2_PLACEMENT_3D('',#336,#337,#338);
#341=DIRECTION('',(0.E0,0.E0,-1.E0));
#342=VECTOR('',#341,2.667E0);
#343=CARTESIAN_POINT('',(1.93675E0,7.874E-1,-8.128E0));
#344=LINE('',#343,#342);
#345=DIRECTION('',(1.081848221746E-1,0.E0,-9.941307983616E-1));
#346=VECTOR('',#345,1.886923415040E0);
#347=CARTESIAN_POINT('',(1.93675E0,7.874E-1,-1.0795E1));
#348=LINE('',#347,#346);
#349=CARTESIAN_POINT('',(2.456523002593E0,7.874E-1,-1.26365E1));
#350=DIRECTION('',(0.E0,1.E0,0.E0));
#351=DIRECTION('',(0.E0,0.E0,-1.E0));
#352=AXIS2_PLACEMENT_3D('',#349,#350,#351);
#354=DIRECTION('',(1.E0,0.E0,0.E0));
#355=VECTOR('',#354,1.669539948139E-1);
#356=CARTESIAN_POINT('',(2.456523002593E0,7.874E-1,-1.2954E1));
#357=LINE('',#356,#355);
#358=CARTESIAN_POINT('',(2.623476997407E0,7.874E-1,-1.26365E1));
#359=DIRECTION('',(0.E0,1.E0,0.E0));
#360=DIRECTION('',(9.941307983616E-1,0.E0,-1.081848221747E-1));
#361=AXIS2_PLACEMENT_3D('',#358,#359,#360);
#363=DIRECTION('',(1.081848221746E-1,0.E0,9.941307983616E-1));
#364=VECTOR('',#363,1.886923415040E0);
#365=CARTESIAN_POINT('',(2.939113525887E0,7.874E-1,-1.267084868104E1));
#366=LINE('',#365,#364);
#367=DIRECTION('',(0.E0,0.E0,1.E0));
#368=VECTOR('',#367,2.921E0);
#369=CARTESIAN_POINT('',(3.14325E0,7.874E-1,-1.0795E1));
#370=LINE('',#369,#368);
#371=DIRECTION('',(1.E0,0.E0,0.E0));
#372=VECTOR('',#371,4.254499999999E-1);
#373=CARTESIAN_POINT('',(3.14325E0,7.874E-1,-7.874E0));
#374=LINE('',#373,#372);
#375=DIRECTION('',(0.E0,0.E0,1.E0));
#376=VECTOR('',#375,1.524E0);
#377=CARTESIAN_POINT('',(3.5687E0,7.874E-1,-7.874E0));
#378=LINE('',#377,#376);
#379=DIRECTION('',(-1.E0,0.E0,0.E0));
#380=VECTOR('',#379,1.1938E0);
#381=CARTESIAN_POINT('',(3.5687E0,7.874E-1,-6.35E0));
#382=LINE('',#381,#380);
#383=DIRECTION('',(0.E0,0.E0,1.E0));
#384=VECTOR('',#383,5.461E0);
#385=CARTESIAN_POINT('',(2.3749E0,7.874E-1,-6.35E0));
#386=LINE('',#385,#384);
#387=DIRECTION('',(1.E0,0.E0,0.E0));
#388=VECTOR('',#387,4.7498E0);
#389=CARTESIAN_POINT('',(-2.3749E0,7.874E-1,-8.89E-1));
#390=LINE('',#389,#388);
#391=DIRECTION('',(0.E0,0.E0,-1.E0));
#392=VECTOR('',#391,5.461E0);
#393=CARTESIAN_POINT('',(-2.3749E0,7.874E-1,-8.89E-1));
#394=LINE('',#393,#392);
#395=DIRECTION('',(-1.E0,0.E0,0.E0));
#396=VECTOR('',#395,1.1938E0);
#397=CARTESIAN_POINT('',(-2.3749E0,7.874E-1,-6.35E0));
#398=LINE('',#397,#396);
#399=DIRECTION('',(0.E0,0.E0,-1.E0));
#400=VECTOR('',#399,1.524E0);
#401=CARTESIAN_POINT('',(-3.5687E0,7.874E-1,-6.35E0));
#402=LINE('',#401,#400);
#403=DIRECTION('',(1.E0,0.E0,0.E0));
#404=VECTOR('',#403,4.254499999999E-1);
#405=CARTESIAN_POINT('',(-3.5687E0,7.874E-1,-7.874E0));
#406=LINE('',#405,#404);
#407=DIRECTION('',(0.E0,0.E0,-1.E0));
#408=VECTOR('',#407,2.921E0);
#409=CARTESIAN_POINT('',(-3.14325E0,7.874E-1,-7.874E0));
#410=LINE('',#409,#408);
#411=DIRECTION('',(1.081848221746E-1,0.E0,-9.941307983616E-1));
#412=VECTOR('',#411,1.886923415040E0);
#413=CARTESIAN_POINT('',(-3.14325E0,7.874E-1,-1.0795E1));
#414=LINE('',#413,#412);
#415=CARTESIAN_POINT('',(-2.623476997407E0,7.874E-1,-1.26365E1));
#416=DIRECTION('',(0.E0,1.E0,0.E0));
#417=DIRECTION('',(0.E0,0.E0,-1.E0));
#418=AXIS2_PLACEMENT_3D('',#415,#416,#417);
#420=DIRECTION('',(1.E0,0.E0,0.E0));
#421=VECTOR('',#420,1.669539948139E-1);
#422=CARTESIAN_POINT('',(-2.623476997407E0,7.874E-1,-1.2954E1));
#423=LINE('',#422,#421);
#424=DIRECTION('',(0.E0,-1.E0,0.E0));
#425=VECTOR('',#424,7.874E-1);
#426=CARTESIAN_POINT('',(-2.456523002593E0,7.874E-1,-1.2954E1));
#427=LINE('',#426,#425);
#428=DIRECTION('',(0.E0,-1.E0,0.E0));
#429=VECTOR('',#428,7.874E-1);
#430=CARTESIAN_POINT('',(-2.623476997407E0,7.874E-1,-1.2954E1));
#431=LINE('',#430,#429);
#432=DIRECTION('',(0.E0,-1.E0,0.E0));
#433=VECTOR('',#432,7.874E-1);
#434=CARTESIAN_POINT('',(-2.939113525887E0,7.874E-1,-1.267084868104E1));
#435=LINE('',#434,#433);
#436=DIRECTION('',(0.E0,-1.E0,0.E0));
#437=VECTOR('',#436,7.874E-1);
#438=CARTESIAN_POINT('',(-3.14325E0,7.874E-1,-1.0795E1));
#439=LINE('',#438,#437);
#440=DIRECTION('',(0.E0,-1.E0,0.E0));
#441=VECTOR('',#440,7.874E-1);
#442=CARTESIAN_POINT('',(-3.14325E0,7.874E-1,-7.874E0));
#443=LINE('',#442,#441);
#444=DIRECTION('',(0.E0,-1.E0,0.E0));
#445=VECTOR('',#444,7.874E-1);
#446=CARTESIAN_POINT('',(-3.5687E0,7.874E-1,-7.874E0));
#447=LINE('',#446,#445);
#448=DIRECTION('',(0.E0,-1.E0,0.E0));
#449=VECTOR('',#448,7.874E-1);
#450=CARTESIAN_POINT('',(-3.5687E0,7.874E-1,-6.35E0));
#451=LINE('',#450,#449);
#452=DIRECTION('',(0.E0,-1.E0,0.E0));
#453=VECTOR('',#452,7.874E-1);
#454=CARTESIAN_POINT('',(-2.3749E0,7.874E-1,-6.35E0));
#455=LINE('',#454,#453);
#456=DIRECTION('',(7.016738431599E-1,-1.237240302065E-1,7.016738431599E-1));
#457=VECTOR('',#456,1.266970414625E0);
#458=CARTESIAN_POINT('',(-2.3749E0,7.874E-1,-8.89E-1));
#459=LINE('',#458,#457);
#460=DIRECTION('',(7.016738431599E-1,1.237240302065E-1,7.016738431599E-1));
#461=VECTOR('',#460,1.266970414625E0);
#462=CARTESIAN_POINT('',(-2.3749E0,0.E0,-8.89E-1));
#463=LINE('',#462,#461);
#464=DIRECTION('',(0.E0,1.E0,0.E0));
#465=VECTOR('',#464,7.874E-1);
#466=CARTESIAN_POINT('',(-2.3749E0,0.E0,-8.89E-1));
#467=LINE('',#466,#465);
#468=DIRECTION('',(7.016738431599E-1,1.237240302065E-1,-7.016738431599E-1));
#469=VECTOR('',#468,1.266970414625E0);
#470=CARTESIAN_POINT('',(1.4859E0,6.306453141502E-1,0.E0));
#471=LINE('',#470,#469);
#472=DIRECTION('',(7.016738431599E-1,-1.237240302065E-1,-7.016738431599E-1));
#473=VECTOR('',#472,1.266970414625E0);
#474=CARTESIAN_POINT('',(1.4859E0,1.567546858498E-1,0.E0));
#475=LINE('',#474,#473);
#476=DIRECTION('',(0.E0,1.E0,0.E0));
#477=VECTOR('',#476,4.738906283004E-1);
#478=CARTESIAN_POINT('',(1.4859E0,1.567546858498E-1,0.E0));
#479=LINE('',#478,#477);
#480=DIRECTION('',(0.E0,1.E0,0.E0));
#481=VECTOR('',#480,7.874E-1);
#482=CARTESIAN_POINT('',(2.3749E0,0.E0,-8.89E-1));
#483=LINE('',#482,#481);
#484=DIRECTION('',(0.E0,-1.E0,0.E0));
#485=VECTOR('',#484,7.874E-1);
#486=CARTESIAN_POINT('',(2.3749E0,7.874E-1,-6.35E0));
#487=LINE('',#486,#485);
#488=DIRECTION('',(0.E0,-1.E0,0.E0));
#489=VECTOR('',#488,7.874E-1);
#490=CARTESIAN_POINT('',(3.5687E0,7.874E-1,-6.35E0));
#491=LINE('',#490,#489);
#492=DIRECTION('',(0.E0,-1.E0,0.E0));
#493=VECTOR('',#492,7.874E-1);
#494=CARTESIAN_POINT('',(3.5687E0,7.874E-1,-7.874E0));
#495=LINE('',#494,#493);
#496=DIRECTION('',(0.E0,-1.E0,0.E0));
#497=VECTOR('',#496,7.874E-1);
#498=CARTESIAN_POINT('',(3.14325E0,7.874E-1,-7.874E0));
#499=LINE('',#498,#497);
#500=DIRECTION('',(0.E0,-1.E0,0.E0));
#501=VECTOR('',#500,7.874E-1);
#502=CARTESIAN_POINT('',(2.939113525887E0,7.874E-1,-1.267084868104E1));
#503=LINE('',#502,#501);
#504=DIRECTION('',(0.E0,-1.E0,0.E0));
#505=VECTOR('',#504,7.874E-1);
#506=CARTESIAN_POINT('',(3.14325E0,7.874E-1,-1.0795E1));
#507=LINE('',#506,#505);
#508=DIRECTION('',(0.E0,-1.E0,0.E0));
#509=VECTOR('',#508,7.874E-1);
#510=CARTESIAN_POINT('',(2.456523002593E0,7.874E-1,-1.2954E1));
#511=LINE('',#510,#509);
#512=DIRECTION('',(0.E0,-1.E0,0.E0));
#513=VECTOR('',#512,7.874E-1);
#514=CARTESIAN_POINT('',(2.623476997407E0,7.874E-1,-1.2954E1));
#515=LINE('',#514,#513);
#516=DIRECTION('',(0.E0,-1.E0,0.E0));
#517=VECTOR('',#516,7.874E-1);
#518=CARTESIAN_POINT('',(2.140886474113E0,7.874E-1,-1.267084868104E1));
#519=LINE('',#518,#517);
#520=DIRECTION('',(0.E0,-1.E0,0.E0));
#521=VECTOR('',#520,7.874E-1);
#522=CARTESIAN_POINT('',(1.93675E0,7.874E-1,-1.0795E1));
#523=LINE('',#522,#521);
#524=DIRECTION('',(1.635583831045E-14,-1.E0,1.353586618796E-13));
#525=VECTOR('',#524,7.874E-1);
#526=CARTESIAN_POINT('',(1.42875E0,7.874E-1,-8.128E0));
#527=LINE('',#526,#525);
#528=DIRECTION('',(0.E0,1.E0,0.E0));
#529=VECTOR('',#528,7.874E-1);
#530=CARTESIAN_POINT('',(1.93675E0,0.E0,-8.128E0));
#531=LINE('',#530,#529);
#532=DIRECTION('',(1.E0,0.E0,0.E0));
#533=VECTOR('',#532,9.938637848781E-1);
#534=CARTESIAN_POINT('',(3.444431075611E-1,1.2954E0,-8.8646E0));
#535=LINE('',#534,#533);
#536=CARTESIAN_POINT('',(1.400681449378E0,7.874E-1,-8.3566E0));
#537=CARTESIAN_POINT('',(1.395502941737E0,7.874E-1,-8.398775560210E0));
#538=CARTESIAN_POINT('',(1.386357332274E0,7.973402014137E-1,-8.473260571969E0));
#539=CARTESIAN_POINT('',(1.370946084869E0,8.408522366157E-1,-8.598775109719E0));
#540=CARTESIAN_POINT('',(1.355749325171E0,9.286165439320E-1,-8.722542785289E0));
#541=CARTESIAN_POINT('',(1.344927583625E0,1.052280102292E0,-8.810678797390E0));
#542=CARTESIAN_POINT('',(1.339543693529E0,1.178071708613E0,-8.854527063465E0));
#543=CARTESIAN_POINT('',(1.338306892439E0,1.252907708694E0,-8.8646E0));
#544=CARTESIAN_POINT('',(1.338306892439E0,1.2954E0,-8.8646E0));
#546=CARTESIAN_POINT('',(2.820685506224E-1,7.874E-1,-8.3566E0));
#547=CARTESIAN_POINT('',(2.872470582636E-1,7.874E-1,-8.398775560210E0));
#548=CARTESIAN_POINT('',(2.963926677264E-1,7.973402014137E-1,
-8.473260571969E0));
#549=CARTESIAN_POINT('',(3.118039151308E-1,8.408522366157E-1,
-8.598775109719E0));
#550=CARTESIAN_POINT('',(3.270006748297E-1,9.286165439320E-1,
-8.722542785289E0));
#551=CARTESIAN_POINT('',(3.378224163752E-1,1.052280102292E0,-8.810678797390E0));
#552=CARTESIAN_POINT('',(3.432063064717E-1,1.178071708613E0,-8.854527063465E0));
#553=CARTESIAN_POINT('',(3.444431075611E-1,1.252907708694E0,-8.8646E0));
#554=CARTESIAN_POINT('',(3.444431075611E-1,1.2954E0,-8.8646E0));
#556=DIRECTION('',(1.E0,0.E0,0.E0));
#557=VECTOR('',#556,9.938637848781E-1);
#558=CARTESIAN_POINT('',(3.444431075611E-1,1.9274E0,-8.8646E0));
#559=LINE('',#558,#557);
#560=DIRECTION('',(0.E0,-1.E0,0.E0));
#561=VECTOR('',#560,6.32E-1);
#562=CARTESIAN_POINT('',(1.338306892439E0,1.9274E0,-8.8646E0));
#563=LINE('',#562,#561);
#564=DIRECTION('',(0.E0,-1.E0,0.E0));
#565=VECTOR('',#564,6.32E-1);
#566=CARTESIAN_POINT('',(3.444431075611E-1,1.9274E0,-8.8646E0));
#567=LINE('',#566,#565);
#568=DIRECTION('',(1.E0,0.E0,0.E0));
#569=VECTOR('',#568,8.005026583682E-1);
#570=CARTESIAN_POINT('',(4.411236708160E-1,1.9274E0,-9.652E0));
#571=LINE('',#570,#569);
#572=DIRECTION('',(-1.218693434051E-1,0.E0,-9.925461516413E-1));
#573=VECTOR('',#572,7.933132365663E-1);
#574=CARTESIAN_POINT('',(1.338306892439E0,1.9274E0,-8.8646E0));
#575=LINE('',#574,#573);
#576=DIRECTION('',(1.218693434052E-1,0.E0,-9.925461516413E-1));
#577=VECTOR('',#576,7.933132365663E-1);
#578=CARTESIAN_POINT('',(3.444431075611E-1,1.9274E0,-8.8646E0));
#579=LINE('',#578,#577);
#580=DIRECTION('',(1.E0,0.E0,0.E0));
#581=VECTOR('',#580,8.005026583682E-1);
#582=CARTESIAN_POINT('',(4.411236708160E-1,1.2954E0,-9.652E0));
#583=LINE('',#582,#581);
#584=DIRECTION('',(0.E0,1.E0,0.E0));
#585=VECTOR('',#584,6.32E-1);
#586=CARTESIAN_POINT('',(1.241626329184E0,1.2954E0,-9.652E0));
#587=LINE('',#586,#585);
#588=DIRECTION('',(0.E0,1.E0,0.E0));
#589=VECTOR('',#588,6.32E-1);
#590=CARTESIAN_POINT('',(4.411236708160E-1,1.2954E0,-9.652E0));
#591=LINE('',#590,#589);
#592=CARTESIAN_POINT('',(2.820685506224E-1,0.E0,-8.3566E0));
#593=CARTESIAN_POINT('',(2.952737451074E-1,0.E0,-8.464147678535E0));
#594=CARTESIAN_POINT('',(3.185950492375E-1,2.534751360504E-2,
-8.654084458522E0));
#595=CARTESIAN_POINT('',(3.578937301189E-1,1.363032033699E-1,
-8.974146529783E0));
#596=CARTESIAN_POINT('',(3.966454673510E-1,3.601021870267E-1,
-9.289754102487E0));
#597=CARTESIAN_POINT('',(4.242409082921E-1,6.754442608434E-1,
-9.514500933344E0));
#598=CARTESIAN_POINT('',(4.379698280380E-1,9.962128569641E-1,
-9.626314011836E0));
#599=CARTESIAN_POINT('',(4.411236708160E-1,1.187044657171E0,-9.652E0));
#600=CARTESIAN_POINT('',(4.411236708160E-1,1.2954E0,-9.652E0));
#602=DIRECTION('',(1.E0,0.E0,0.E0));
#603=VECTOR('',#602,1.118612898755E0);
#604=CARTESIAN_POINT('',(2.820685506224E-1,0.E0,-8.3566E0));
#605=LINE('',#604,#603);
#606=CARTESIAN_POINT('',(1.400681449378E0,0.E0,-8.3566E0));
#607=CARTESIAN_POINT('',(1.387476254893E0,0.E0,-8.464147678535E0));
#608=CARTESIAN_POINT('',(1.364154950763E0,2.534751360504E-2,-8.654084458522E0));
#609=CARTESIAN_POINT('',(1.324856269881E0,1.363032033699E-1,-8.974146529783E0));
#610=CARTESIAN_POINT('',(1.286104532649E0,3.601021870267E-1,-9.289754102487E0));
#611=CARTESIAN_POINT('',(1.258509091708E0,6.754442608434E-1,-9.514500933344E0));
#612=CARTESIAN_POINT('',(1.244780171962E0,9.962128569641E-1,-9.626314011836E0));
#613=CARTESIAN_POINT('',(1.241626329184E0,1.187044657171E0,-9.652E0));
#614=CARTESIAN_POINT('',(1.241626329184E0,1.2954E0,-9.652E0));
#616=DIRECTION('',(0.E0,1.E0,6.542335324182E-14));
#617=VECTOR('',#616,7.874E-1);
#618=CARTESIAN_POINT('',(-2.54E-1,0.E0,-8.128E0));
#619=LINE('',#618,#617);
#620=DIRECTION('',(0.E0,1.E0,1.804782158395E-14));
#621=VECTOR('',#620,7.874E-1);
#622=CARTESIAN_POINT('',(2.54E-1,0.E0,-8.128E0));
#623=LINE('',#622,#621);
#624=DIRECTION('',(-1.E0,0.E0,0.E0));
#625=VECTOR('',#624,8.005026583681E-1);
#626=CARTESIAN_POINT('',(-4.411236708160E-1,-5.08E-1,-9.652E0));
#627=LINE('',#626,#625);
#628=CARTESIAN_POINT('',(-4.411236708160E-1,-5.08E-1,-9.652E0));
#629=CARTESIAN_POINT('',(-4.411236708160E-1,-3.996446571708E-1,-9.652E0));
#630=CARTESIAN_POINT('',(-4.379698280380E-1,-2.088128569641E-1,
-9.626314011836E0));
#631=CARTESIAN_POINT('',(-4.242409082921E-1,1.119557391566E-1,
-9.514500933344E0));
#632=CARTESIAN_POINT('',(-3.966454673510E-1,4.272978129733E-1,
-9.289754102487E0));
#633=CARTESIAN_POINT('',(-3.578937301189E-1,6.510967966301E-1,
-8.974146529783E0));
#634=CARTESIAN_POINT('',(-3.185950492375E-1,7.620524863950E-1,
-8.654084458522E0));
#635=CARTESIAN_POINT('',(-2.952737451074E-1,7.874E-1,-8.464147678535E0));
#636=CARTESIAN_POINT('',(-2.820685506224E-1,7.874E-1,-8.3566E0));
#638=CARTESIAN_POINT('',(-1.241626329184E0,-5.08E-1,-9.652E0));
#639=CARTESIAN_POINT('',(-1.241626329184E0,-3.996446571709E-1,-9.652E0));
#640=CARTESIAN_POINT('',(-1.244780171962E0,-2.088128569641E-1,
-9.626314011836E0));
#641=CARTESIAN_POINT('',(-1.258509091708E0,1.119557391566E-1,
-9.514500933344E0));
#642=CARTESIAN_POINT('',(-1.286104532649E0,4.272978129733E-1,
-9.289754102487E0));
#643=CARTESIAN_POINT('',(-1.324856269881E0,6.510967966301E-1,
-8.974146529783E0));
#644=CARTESIAN_POINT('',(-1.364154950763E0,7.620524863950E-1,
-8.654084458522E0));
#645=CARTESIAN_POINT('',(-1.387476254893E0,7.874E-1,-8.464147678535E0));
#646=CARTESIAN_POINT('',(-1.400681449378E0,7.874E-1,-8.3566E0));
#648=DIRECTION('',(-1.E0,0.E0,0.E0));
#649=VECTOR('',#648,8.005026583681E-1);
#650=CARTESIAN_POINT('',(-4.411236708160E-1,-1.14E0,-9.652E0));
#651=LINE('',#650,#649);
#652=DIRECTION('',(0.E0,1.E0,0.E0));
#653=VECTOR('',#652,6.32E-1);
#654=CARTESIAN_POINT('',(-4.411236708160E-1,-1.14E0,-9.652E0));
#655=LINE('',#654,#653);
#656=DIRECTION('',(0.E0,1.E0,0.E0));
#657=VECTOR('',#656,6.32E-1);
#658=CARTESIAN_POINT('',(-1.241626329184E0,-1.14E0,-9.652E0));
#659=LINE('',#658,#657);
#660=DIRECTION('',(-1.E0,0.E0,0.E0));
#661=VECTOR('',#660,9.938637848781E-1);
#662=CARTESIAN_POINT('',(-3.444431075611E-1,-1.14E0,-8.8646E0));
#663=LINE('',#662,#661);
#664=DIRECTION('',(-1.218693434052E-1,0.E0,-9.925461516413E-1));
#665=VECTOR('',#664,7.933132365663E-1);
#666=CARTESIAN_POINT('',(-3.444431075611E-1,-1.14E0,-8.8646E0));
#667=LINE('',#666,#665);
#668=DIRECTION('',(1.218693434052E-1,0.E0,-9.925461516413E-1));
#669=VECTOR('',#668,7.933132365663E-1);
#670=CARTESIAN_POINT('',(-1.338306892439E0,-1.14E0,-8.8646E0));
#671=LINE('',#670,#669);
#672=DIRECTION('',(-1.E0,0.E0,0.E0));
#673=VECTOR('',#672,9.938637848781E-1);
#674=CARTESIAN_POINT('',(-3.444431075611E-1,-5.08E-1,-8.8646E0));
#675=LINE('',#674,#673);
#676=DIRECTION('',(0.E0,-1.E0,0.E0));
#677=VECTOR('',#676,6.32E-1);
#678=CARTESIAN_POINT('',(-3.444431075611E-1,-5.08E-1,-8.8646E0));
#679=LINE('',#678,#677);
#680=DIRECTION('',(0.E0,-1.E0,0.E0));
#681=VECTOR('',#680,6.32E-1);
#682=CARTESIAN_POINT('',(-1.338306892439E0,-5.08E-1,-8.8646E0));
#683=LINE('',#682,#681);
#684=CARTESIAN_POINT('',(-1.338306892439E0,-5.08E-1,-8.8646E0));
#685=CARTESIAN_POINT('',(-1.338306892439E0,-4.655077086945E-1,-8.8646E0));
#686=CARTESIAN_POINT('',(-1.339543693529E0,-3.906717086134E-1,
-8.854527063465E0));
#687=CARTESIAN_POINT('',(-1.344927583625E0,-2.648801022915E-1,
-8.810678797390E0));
#688=CARTESIAN_POINT('',(-1.355749325171E0,-1.412165439320E-1,
-8.722542785289E0));
#689=CARTESIAN_POINT('',(-1.370946084869E0,-5.345223661566E-2,
-8.598775109719E0));
#690=CARTESIAN_POINT('',(-1.386357332274E0,-9.940201413742E-3,
-8.473260571969E0));
#691=CARTESIAN_POINT('',(-1.395502941737E0,0.E0,-8.398775560210E0));
#692=CARTESIAN_POINT('',(-1.400681449378E0,0.E0,-8.3566E0));
#694=DIRECTION('',(1.E0,0.E0,0.E0));
#695=VECTOR('',#694,1.118612898755E0);
#696=CARTESIAN_POINT('',(-1.400681449378E0,0.E0,-8.3566E0));
#697=LINE('',#696,#695);
#698=CARTESIAN_POINT('',(-3.444431075611E-1,-5.08E-1,-8.8646E0));
#699=CARTESIAN_POINT('',(-3.444431075611E-1,-4.655077086945E-1,-8.8646E0));
#700=CARTESIAN_POINT('',(-3.432063064717E-1,-3.906717086134E-1,
-8.854527063465E0));
#701=CARTESIAN_POINT('',(-3.378224163752E-1,-2.648801022915E-1,
-8.810678797390E0));
#702=CARTESIAN_POINT('',(-3.270006748297E-1,-1.412165439320E-1,
-8.722542785289E0));
#703=CARTESIAN_POINT('',(-3.118039151308E-1,-5.345223661566E-2,
-8.598775109719E0));
#704=CARTESIAN_POINT('',(-2.963926677264E-1,-9.940201413742E-3,
-8.473260571969E0));
#705=CARTESIAN_POINT('',(-2.872470582636E-1,0.E0,-8.398775560210E0));
#706=CARTESIAN_POINT('',(-2.820685506224E-1,0.E0,-8.3566E0));
#708=DIRECTION('',(0.E0,1.E0,6.767933093981E-14));
#709=VECTOR('',#708,7.874E-1);
#710=CARTESIAN_POINT('',(-1.42875E0,0.E0,-8.128E0));
#711=LINE('',#710,#709);
#712=DIRECTION('',(0.E0,1.E0,0.E0));
#713=VECTOR('',#712,7.874E-1);
#714=CARTESIAN_POINT('',(-1.93675E0,0.E0,-8.128E0));
#715=LINE('',#714,#713);
#716=DIRECTION('',(0.E0,-1.E0,0.E0));
#717=VECTOR('',#716,7.874E-1);
#718=CARTESIAN_POINT('',(-2.140886474113E0,7.874E-1,-1.267084868104E1));
#719=LINE('',#718,#717);
#720=DIRECTION('',(0.E0,-1.E0,0.E0));
#721=VECTOR('',#720,7.874E-1);
#722=CARTESIAN_POINT('',(-1.93675E0,7.874E-1,-1.0795E1));
#723=LINE('',#722,#721);
#724=DIRECTION('',(1.E0,0.E0,0.E0));
#725=VECTOR('',#724,2.9718E0);
#726=CARTESIAN_POINT('',(-1.4859E0,6.306453141502E-1,0.E0));
#727=LINE('',#726,#725);
#728=DIRECTION('',(1.E0,0.E0,0.E0));
#729=VECTOR('',#728,2.9718E0);
#730=CARTESIAN_POINT('',(-1.4859E0,1.567546858498E-1,0.E0));
#731=LINE('',#730,#729);
#732=DIRECTION('',(0.E0,1.E0,0.E0));
#733=VECTOR('',#732,4.738906283004E-1);
#734=CARTESIAN_POINT('',(-1.4859E0,1.567546858498E-1,0.E0));
#735=LINE('',#734,#733);
#736=CARTESIAN_POINT('',(-6.985E-1,0.E0,-3.174999999999E0));
#737=CARTESIAN_POINT('',(6.985E-1,0.E0,-3.174999999999E0));
#738=VERTEX_POINT('',#736);
#739=VERTEX_POINT('',#737);
#740=CARTESIAN_POINT('',(3.5687E0,0.E0,-6.35E0));
#741=CARTESIAN_POINT('',(2.3749E0,0.E0,-6.35E0));
#742=VERTEX_POINT('',#740);
#743=VERTEX_POINT('',#741);
#744=CARTESIAN_POINT('',(3.5687E0,0.E0,-7.874E0));
#745=VERTEX_POINT('',#744);
#746=CARTESIAN_POINT('',(3.14325E0,0.E0,-7.874E0));
#747=VERTEX_POINT('',#746);
#748=CARTESIAN_POINT('',(3.14325E0,0.E0,-1.0795E1));
#749=VERTEX_POINT('',#748);
#750=CARTESIAN_POINT('',(1.93675E0,0.E0,-8.128E0));
#751=CARTESIAN_POINT('',(1.93675E0,0.E0,-1.0795E1));
#752=VERTEX_POINT('',#750);
#753=VERTEX_POINT('',#751);
#754=CARTESIAN_POINT('',(-1.93675E0,0.E0,-1.0795E1));
#755=CARTESIAN_POINT('',(-1.93675E0,0.E0,-8.128E0));
#756=VERTEX_POINT('',#754);
#757=VERTEX_POINT('',#755);
#758=CARTESIAN_POINT('',(-3.14325E0,0.E0,-7.874E0));
#759=CARTESIAN_POINT('',(-3.14325E0,0.E0,-1.0795E1));
#760=VERTEX_POINT('',#758);
#761=VERTEX_POINT('',#759);
#762=CARTESIAN_POINT('',(-3.5687E0,0.E0,-7.874E0));
#763=VERTEX_POINT('',#762);
#764=CARTESIAN_POINT('',(-3.5687E0,0.E0,-6.35E0));
#765=VERTEX_POINT('',#764);
#766=CARTESIAN_POINT('',(-2.3749E0,0.E0,-6.35E0));
#767=VERTEX_POINT('',#766);
#768=CARTESIAN_POINT('',(-6.985E-1,7.874E-1,-3.174999999999E0));
#769=CARTESIAN_POINT('',(6.985E-1,7.874E-1,-3.174999999999E0));
#770=VERTEX_POINT('',#768);
#771=VERTEX_POINT('',#769);
#772=CARTESIAN_POINT('',(3.5687E0,7.874E-1,-6.35E0));
#773=CARTESIAN_POINT('',(2.3749E0,7.874E-1,-6.35E0));
#774=VERTEX_POINT('',#772);
#775=VERTEX_POINT('',#773);
#776=CARTESIAN_POINT('',(3.5687E0,7.874E-1,-7.874E0));
#777=VERTEX_POINT('',#776);
#778=CARTESIAN_POINT('',(3.14325E0,7.874E-1,-7.874E0));
#779=VERTEX_POINT('',#778);
#780=CARTESIAN_POINT('',(3.14325E0,7.874E-1,-1.0795E1));
#781=VERTEX_POINT('',#780);
#782=CARTESIAN_POINT('',(1.93675E0,7.874E-1,-8.128E0));
#783=CARTESIAN_POINT('',(1.93675E0,7.874E-1,-1.0795E1));
#784=VERTEX_POINT('',#782);
#785=VERTEX_POINT('',#783);
#786=CARTESIAN_POINT('',(-1.93675E0,7.874E-1,-1.0795E1));
#787=CARTESIAN_POINT('',(-1.93675E0,7.874E-1,-8.128E0));
#788=VERTEX_POINT('',#786);
#789=VERTEX_POINT('',#787);
#790=CARTESIAN_POINT('',(-3.14325E0,7.874E-1,-7.874E0));
#791=CARTESIAN_POINT('',(-3.14325E0,7.874E-1,-1.0795E1));
#792=VERTEX_POINT('',#790);
#793=VERTEX_POINT('',#791);
#794=CARTESIAN_POINT('',(-3.5687E0,7.874E-1,-7.874E0));
#795=VERTEX_POINT('',#794);
#796=CARTESIAN_POINT('',(-3.5687E0,7.874E-1,-6.35E0));
#797=VERTEX_POINT('',#796);
#798=CARTESIAN_POINT('',(-2.3749E0,7.874E-1,-6.35E0));
#799=VERTEX_POINT('',#798);
#800=CARTESIAN_POINT('',(-2.140886474113E0,7.874E-1,-1.267084868104E1));
#801=CARTESIAN_POINT('',(-2.456523002593E0,7.874E-1,-1.2954E1));
#802=VERTEX_POINT('',#800);
#803=VERTEX_POINT('',#801);
#804=CARTESIAN_POINT('',(-2.140886474113E0,0.E0,-1.267084868104E1));
#805=VERTEX_POINT('',#804);
#806=CARTESIAN_POINT('',(-2.456523002593E0,0.E0,-1.2954E1));
#807=VERTEX_POINT('',#806);
#808=CARTESIAN_POINT('',(-2.623476997407E0,7.874E-1,-1.2954E1));
#809=CARTESIAN_POINT('',(-2.939113525887E0,7.874E-1,-1.267084868104E1));
#810=VERTEX_POINT('',#808);
#811=VERTEX_POINT('',#809);
#812=CARTESIAN_POINT('',(-2.623476997407E0,0.E0,-1.2954E1));
#813=VERTEX_POINT('',#812);
#814=CARTESIAN_POINT('',(-2.939113525887E0,0.E0,-1.267084868104E1));
#815=VERTEX_POINT('',#814);
#816=CARTESIAN_POINT('',(2.456523002593E0,7.874E-1,-1.2954E1));
#817=CARTESIAN_POINT('',(2.140886474113E0,7.874E-1,-1.267084868104E1));
#818=VERTEX_POINT('',#816);
#819=VERTEX_POINT('',#817);
#820=CARTESIAN_POINT('',(2.456523002593E0,0.E0,-1.2954E1));
#821=VERTEX_POINT('',#820);
#822=CARTESIAN_POINT('',(2.140886474113E0,0.E0,-1.267084868104E1));
#823=VERTEX_POINT('',#822);
#824=CARTESIAN_POINT('',(2.939113525887E0,7.874E-1,-1.267084868104E1));
#825=CARTESIAN_POINT('',(2.623476997407E0,7.874E-1,-1.2954E1));
#826=VERTEX_POINT('',#824);
#827=VERTEX_POINT('',#825);
#828=CARTESIAN_POINT('',(2.939113525887E0,0.E0,-1.267084868104E1));
#829=VERTEX_POINT('',#828);
#830=CARTESIAN_POINT('',(2.623476997407E0,0.E0,-1.2954E1));
#831=VERTEX_POINT('',#830);
#832=CARTESIAN_POINT('',(-2.3749E0,0.E0,-8.89E-1));
#833=CARTESIAN_POINT('',(2.3749E0,0.E0,-8.89E-1));
#834=VERTEX_POINT('',#832);
#835=VERTEX_POINT('',#833);
#836=CARTESIAN_POINT('',(-2.3749E0,7.874E-1,-8.89E-1));
#837=CARTESIAN_POINT('',(2.3749E0,7.874E-1,-8.89E-1));
#838=VERTEX_POINT('',#836);
#839=VERTEX_POINT('',#837);
#840=CARTESIAN_POINT('',(-3.444431075611E-1,-5.08E-1,-8.8646E0));
#841=CARTESIAN_POINT('',(-1.338306892439E0,-5.08E-1,-8.8646E0));
#842=VERTEX_POINT('',#840);
#843=VERTEX_POINT('',#841);
#844=CARTESIAN_POINT('',(-3.444431075611E-1,-1.14E0,-8.8646E0));
#845=CARTESIAN_POINT('',(-1.338306892439E0,-1.14E0,-8.8646E0));
#846=VERTEX_POINT('',#844);
#847=VERTEX_POINT('',#845);
#848=CARTESIAN_POINT('',(-4.411236708160E-1,-1.14E0,-9.652E0));
#849=CARTESIAN_POINT('',(-1.241626329184E0,-1.14E0,-9.652E0));
#850=VERTEX_POINT('',#848);
#851=VERTEX_POINT('',#849);
#852=CARTESIAN_POINT('',(-4.411236708160E-1,-5.08E-1,-9.652E0));
#853=CARTESIAN_POINT('',(-1.241626329184E0,-5.08E-1,-9.652E0));
#854=VERTEX_POINT('',#852);
#855=VERTEX_POINT('',#853);
#856=CARTESIAN_POINT('',(4.411236708160E-1,1.2954E0,-9.652E0));
#857=CARTESIAN_POINT('',(1.241626329184E0,1.2954E0,-9.652E0));
#858=VERTEX_POINT('',#856);
#859=VERTEX_POINT('',#857);
#860=CARTESIAN_POINT('',(4.411236708160E-1,1.9274E0,-9.652E0));
#861=CARTESIAN_POINT('',(1.241626329184E0,1.9274E0,-9.652E0));
#862=VERTEX_POINT('',#860);
#863=VERTEX_POINT('',#861);
#864=CARTESIAN_POINT('',(3.444431075611E-1,1.9274E0,-8.8646E0));
#865=CARTESIAN_POINT('',(1.338306892439E0,1.9274E0,-8.8646E0));
#866=VERTEX_POINT('',#864);
#867=VERTEX_POINT('',#865);
#868=CARTESIAN_POINT('',(3.444431075611E-1,1.2954E0,-8.8646E0));
#869=CARTESIAN_POINT('',(1.338306892439E0,1.2954E0,-8.8646E0));
#870=VERTEX_POINT('',#868);
#871=VERTEX_POINT('',#869);
#872=CARTESIAN_POINT('',(1.400681449378E0,0.E0,-8.3566E0));
#873=CARTESIAN_POINT('',(1.42875E0,0.E0,-8.128E0));
#874=VERTEX_POINT('',#872);
#875=VERTEX_POINT('',#873);
#876=CARTESIAN_POINT('',(-1.42875E0,0.E0,-8.128E0));
#877=CARTESIAN_POINT('',(-1.400681449378E0,0.E0,-8.3566E0));
#878=VERTEX_POINT('',#876);
#879=VERTEX_POINT('',#877);
#880=CARTESIAN_POINT('',(-2.820685506224E-1,0.E0,-8.3566E0));
#881=CARTESIAN_POINT('',(-2.54E-1,0.E0,-8.128E0));
#882=VERTEX_POINT('',#880);
#883=VERTEX_POINT('',#881);
#884=CARTESIAN_POINT('',(2.54E-1,0.E0,-8.128E0));
#885=CARTESIAN_POINT('',(2.820685506224E-1,0.E0,-8.3566E0));
#886=VERTEX_POINT('',#884);
#887=VERTEX_POINT('',#885);
#888=CARTESIAN_POINT('',(1.400681449378E0,7.874E-1,-8.3566E0));
#889=CARTESIAN_POINT('',(1.42875E0,7.874E-1,-8.128E0));
#890=VERTEX_POINT('',#888);
#891=VERTEX_POINT('',#889);
#892=CARTESIAN_POINT('',(-1.42875E0,7.874E-1,-8.128E0));
#893=CARTESIAN_POINT('',(-1.400681449378E0,7.874E-1,-8.3566E0));
#894=VERTEX_POINT('',#892);
#895=VERTEX_POINT('',#893);
#896=CARTESIAN_POINT('',(-2.820685506224E-1,7.874E-1,-8.3566E0));
#897=CARTESIAN_POINT('',(-2.54E-1,7.874E-1,-8.128E0));
#898=VERTEX_POINT('',#896);
#899=VERTEX_POINT('',#897);
#900=CARTESIAN_POINT('',(2.54E-1,7.874E-1,-8.128E0));
#901=CARTESIAN_POINT('',(2.820685506224E-1,7.874E-1,-8.3566E0));
#902=VERTEX_POINT('',#900);
#903=VERTEX_POINT('',#901);
#904=CARTESIAN_POINT('',(-1.4859E0,6.306453141502E-1,0.E0));
#905=VERTEX_POINT('',#904);
#906=CARTESIAN_POINT('',(-1.4859E0,1.567546858498E-1,0.E0));
#907=VERTEX_POINT('',#906);
#908=CARTESIAN_POINT('',(1.4859E0,6.306453141502E-1,0.E0));
#909=VERTEX_POINT('',#908);
#910=CARTESIAN_POINT('',(1.4859E0,1.567546858498E-1,0.E0));
#911=VERTEX_POINT('',#910);
#912=CARTESIAN_POINT('',(0.E0,0.E0,0.E0));
#913=DIRECTION('',(0.E0,1.E0,0.E0));
#914=DIRECTION('',(1.E0,0.E0,0.E0));
#915=AXIS2_PLACEMENT_3D('',#912,#913,#914);
#916=PLANE('',#915);
#918=ORIENTED_EDGE('',*,*,#917,.F.);
#920=ORIENTED_EDGE('',*,*,#919,.F.);
#922=ORIENTED_EDGE('',*,*,#921,.F.);
#924=ORIENTED_EDGE('',*,*,#923,.F.);
#926=ORIENTED_EDGE('',*,*,#925,.F.);
#928=ORIENTED_EDGE('',*,*,#927,.F.);
#930=ORIENTED_EDGE('',*,*,#929,.F.);
#932=ORIENTED_EDGE('',*,*,#931,.F.);
#934=ORIENTED_EDGE('',*,*,#933,.F.);
#936=ORIENTED_EDGE('',*,*,#935,.T.);
#938=ORIENTED_EDGE('',*,*,#937,.F.);
#940=ORIENTED_EDGE('',*,*,#939,.F.);
#942=ORIENTED_EDGE('',*,*,#941,.F.);
#944=ORIENTED_EDGE('',*,*,#943,.F.);
#946=ORIENTED_EDGE('',*,*,#945,.F.);
#948=ORIENTED_EDGE('',*,*,#947,.F.);
#950=ORIENTED_EDGE('',*,*,#949,.F.);
#952=ORIENTED_EDGE('',*,*,#951,.F.);
#954=ORIENTED_EDGE('',*,*,#953,.F.);
#956=ORIENTED_EDGE('',*,*,#955,.F.);
#958=ORIENTED_EDGE('',*,*,#957,.F.);
#960=ORIENTED_EDGE('',*,*,#959,.T.);
#962=ORIENTED_EDGE('',*,*,#961,.F.);
#964=ORIENTED_EDGE('',*,*,#963,.F.);
#966=ORIENTED_EDGE('',*,*,#965,.F.);
#968=ORIENTED_EDGE('',*,*,#967,.T.);
#970=ORIENTED_EDGE('',*,*,#969,.F.);
#972=ORIENTED_EDGE('',*,*,#971,.F.);
#974=ORIENTED_EDGE('',*,*,#973,.F.);
#976=ORIENTED_EDGE('',*,*,#975,.T.);
#978=ORIENTED_EDGE('',*,*,#977,.F.);
#980=ORIENTED_EDGE('',*,*,#979,.F.);
#981=EDGE_LOOP('',(#918,#920,#922,#924,#926,#928,#930,#932,#934,#936,#938,#940,
#942,#944,#946,#948,#950,#952,#954,#956,#958,#960,#962,#964,#966,#968,#970,#972,
#974,#976,#978,#980));
#982=FACE_OUTER_BOUND('',#981,.F.);
#984=ORIENTED_EDGE('',*,*,#983,.F.);
#986=ORIENTED_EDGE('',*,*,#985,.F.);
#987=EDGE_LOOP('',(#984,#986));
#988=FACE_BOUND('',#987,.F.);
#990=CARTESIAN_POINT('',(0.E0,0.E0,-3.174999999999E0));
#991=DIRECTION('',(0.E0,1.E0,0.E0));
#992=DIRECTION('',(1.E0,0.E0,0.E0));
#993=AXIS2_PLACEMENT_3D('',#990,#991,#992);
#994=CYLINDRICAL_SURFACE('',#993,6.985E-1);
#995=ORIENTED_EDGE('',*,*,#983,.T.);
#997=ORIENTED_EDGE('',*,*,#996,.F.);
#999=ORIENTED_EDGE('',*,*,#998,.F.);
#1001=ORIENTED_EDGE('',*,*,#1000,.T.);
#1002=EDGE_LOOP('',(#995,#997,#999,#1001));
#1003=FACE_OUTER_BOUND('',#1002,.F.);
#1005=CARTESIAN_POINT('',(0.E0,0.E0,-3.174999999999E0));
#1006=DIRECTION('',(0.E0,1.E0,0.E0));
#1007=DIRECTION('',(1.E0,0.E0,0.E0));
#1008=AXIS2_PLACEMENT_3D('',#1005,#1006,#1007);
#1009=CYLINDRICAL_SURFACE('',#1008,6.985E-1);
#1010=ORIENTED_EDGE('',*,*,#985,.T.);
#1011=ORIENTED_EDGE('',*,*,#1000,.F.);
#1013=ORIENTED_EDGE('',*,*,#1012,.F.);
#1014=ORIENTED_EDGE('',*,*,#996,.T.);
#1015=EDGE_LOOP('',(#1010,#1011,#1013,#1014));
#1016=FACE_OUTER_BOUND('',#1015,.F.);
#1018=CARTESIAN_POINT('',(0.E0,7.874E-1,0.E0));
#1019=DIRECTION('',(0.E0,1.E0,0.E0));
#1020=DIRECTION('',(1.E0,0.E0,0.E0));
#1021=AXIS2_PLACEMENT_3D('',#1018,#1019,#1020);
#1022=PLANE('',#1021);
#1024=ORIENTED_EDGE('',*,*,#1023,.F.);
#1026=ORIENTED_EDGE('',*,*,#1025,.T.);
#1028=ORIENTED_EDGE('',*,*,#1027,.T.);
#1030=ORIENTED_EDGE('',*,*,#1029,.F.);
#1032=ORIENTED_EDGE('',*,*,#1031,.T.);
#1034=ORIENTED_EDGE('',*,*,#1033,.F.);
#1036=ORIENTED_EDGE('',*,*,#1035,.T.);
#1038=ORIENTED_EDGE('',*,*,#1037,.F.);
#1040=ORIENTED_EDGE('',*,*,#1039,.T.);
#1042=ORIENTED_EDGE('',*,*,#1041,.T.);
#1044=ORIENTED_EDGE('',*,*,#1043,.T.);
#1046=ORIENTED_EDGE('',*,*,#1045,.F.);
#1048=ORIENTED_EDGE('',*,*,#1047,.T.);
#1050=ORIENTED_EDGE('',*,*,#1049,.T.);
#1052=ORIENTED_EDGE('',*,*,#1051,.F.);
#1054=ORIENTED_EDGE('',*,*,#1053,.T.);
#1056=ORIENTED_EDGE('',*,*,#1055,.F.);
#1058=ORIENTED_EDGE('',*,*,#1057,.T.);
#1060=ORIENTED_EDGE('',*,*,#1059,.T.);
#1062=ORIENTED_EDGE('',*,*,#1061,.T.);
#1064=ORIENTED_EDGE('',*,*,#1063,.T.);
#1066=ORIENTED_EDGE('',*,*,#1065,.T.);
#1068=ORIENTED_EDGE('',*,*,#1067,.T.);
#1070=ORIENTED_EDGE('',*,*,#1069,.F.);
#1072=ORIENTED_EDGE('',*,*,#1071,.T.);
#1074=ORIENTED_EDGE('',*,*,#1073,.T.);
#1076=ORIENTED_EDGE('',*,*,#1075,.T.);
#1078=ORIENTED_EDGE('',*,*,#1077,.T.);
#1080=ORIENTED_EDGE('',*,*,#1079,.T.);
#1082=ORIENTED_EDGE('',*,*,#1081,.T.);
#1084=ORIENTED_EDGE('',*,*,#1083,.F.);
#1086=ORIENTED_EDGE('',*,*,#1085,.T.);
#1087=EDGE_LOOP('',(#1024,#1026,#1028,#1030,#1032,#1034,#1036,#1038,#1040,#1042,
#1044,#1046,#1048,#1050,#1052,#1054,#1056,#1058,#1060,#1062,#1064,#1066,#1068,
#1070,#1072,#1074,#1076,#1078,#1080,#1082,#1084,#1086));
#1088=FACE_OUTER_BOUND('',#1087,.F.);
#1089=ORIENTED_EDGE('',*,*,#998,.T.);
#1090=ORIENTED_EDGE('',*,*,#1012,.T.);
#1091=EDGE_LOOP('',(#1089,#1090));
#1092=FACE_BOUND('',#1091,.F.);
#1094=CARTESIAN_POINT('',(-2.456523002593E0,5.92606264E0,-1.26365E1));
#1095=DIRECTION('',(0.E0,-1.E0,0.E0));
#1096=DIRECTION('',(0.E0,0.E0,-1.E0));
#1097=AXIS2_PLACEMENT_3D('',#1094,#1095,#1096);
#1098=CYLINDRICAL_SURFACE('',#1097,3.175E-1);
#1099=ORIENTED_EDGE('',*,*,#1023,.T.);
#1101=ORIENTED_EDGE('',*,*,#1100,.T.);
#1102=ORIENTED_EDGE('',*,*,#917,.T.);
#1104=ORIENTED_EDGE('',*,*,#1103,.F.);
#1105=EDGE_LOOP('',(#1099,#1101,#1102,#1104));
#1106=FACE_OUTER_BOUND('',#1105,.F.);
#1108=CARTESIAN_POINT('',(-2.1717E0,0.E0,-1.2954E1));
#1109=DIRECTION('',(0.E0,0.E0,-1.E0));
#1110=DIRECTION('',(-1.E0,0.E0,0.E0));
#1111=AXIS2_PLACEMENT_3D('',#1108,#1109,#1110);
#1112=PLANE('',#1111);
#1113=ORIENTED_EDGE('',*,*,#1100,.F.);
#1114=ORIENTED_EDGE('',*,*,#1085,.F.);
#1116=ORIENTED_EDGE('',*,*,#1115,.T.);
#1117=ORIENTED_EDGE('',*,*,#919,.T.);
#1118=EDGE_LOOP('',(#1113,#1114,#1116,#1117));
#1119=FACE_OUTER_BOUND('',#1118,.F.);
#1121=CARTESIAN_POINT('',(-2.623476997407E0,5.92606264E0,-1.26365E1));
#1122=DIRECTION('',(0.E0,-1.E0,0.E0));
#1123=DIRECTION('',(-9.941307983616E-1,0.E0,-1.081848221746E-1));
#1124=AXIS2_PLACEMENT_3D('',#1121,#1122,#1123);
#1125=CYLINDRICAL_SURFACE('',#1124,3.175E-1);
#1126=ORIENTED_EDGE('',*,*,#1083,.T.);
#1128=ORIENTED_EDGE('',*,*,#1127,.T.);
#1129=ORIENTED_EDGE('',*,*,#921,.T.);
#1130=ORIENTED_EDGE('',*,*,#1115,.F.);
#1131=EDGE_LOOP('',(#1126,#1128,#1129,#1130));
#1132=FACE_OUTER_BOUND('',#1131,.F.);
#1134=CARTESIAN_POINT('',(-2.9083E0,0.E0,-1.2954E1));
#1135=DIRECTION('',(-9.941307983616E-1,0.E0,-1.081848221746E-1));
#1136=DIRECTION('',(-1.081848221746E-1,0.E0,9.941307983616E-1));
#1137=AXIS2_PLACEMENT_3D('',#1134,#1135,#1136);
#1138=PLANE('',#1137);
#1139=ORIENTED_EDGE('',*,*,#1127,.F.);
#1140=ORIENTED_EDGE('',*,*,#1081,.F.);
#1142=ORIENTED_EDGE('',*,*,#1141,.T.);
#1143=ORIENTED_EDGE('',*,*,#923,.T.);
#1144=EDGE_LOOP('',(#1139,#1140,#1142,#1143));
#1145=FACE_OUTER_BOUND('',#1144,.F.);
#1147=CARTESIAN_POINT('',(-3.14325E0,0.E0,-1.0795E1));
#1148=DIRECTION('',(-1.E0,0.E0,0.E0));
#1149=DIRECTION('',(0.E0,0.E0,1.E0));
#1150=AXIS2_PLACEMENT_3D('',#1147,#1148,#1149);
#1151=PLANE('',#1150);
#1152=ORIENTED_EDGE('',*,*,#925,.T.);
#1153=ORIENTED_EDGE('',*,*,#1141,.F.);
#1154=ORIENTED_EDGE('',*,*,#1079,.F.);
#1156=ORIENTED_EDGE('',*,*,#1155,.T.);
#1157=EDGE_LOOP('',(#1152,#1153,#1154,#1156));
#1158=FACE_OUTER_BOUND('',#1157,.F.);
#1160=CARTESIAN_POINT('',(-3.14325E0,0.E0,-7.874E0));
#1161=DIRECTION('',(0.E0,0.E0,-1.E0));
#1162=DIRECTION('',(-1.E0,0.E0,0.E0));
#1163=AXIS2_PLACEMENT_3D('',#1160,#1161,#1162);
#1164=PLANE('',#1163);
#1165=ORIENTED_EDGE('',*,*,#927,.T.);
#1166=ORIENTED_EDGE('',*,*,#1155,.F.);
#1167=ORIENTED_EDGE('',*,*,#1077,.F.);
#1169=ORIENTED_EDGE('',*,*,#1168,.T.);
#1170=EDGE_LOOP('',(#1165,#1166,#1167,#1169));
#1171=FACE_OUTER_BOUND('',#1170,.F.);
#1173=CARTESIAN_POINT('',(-3.5687E0,0.E0,-7.874E0));
#1174=DIRECTION('',(-1.E0,0.E0,0.E0));
#1175=DIRECTION('',(0.E0,0.E0,1.E0));
#1176=AXIS2_PLACEMENT_3D('',#1173,#1174,#1175);
#1177=PLANE('',#1176);
#1178=ORIENTED_EDGE('',*,*,#929,.T.);
#1179=ORIENTED_EDGE('',*,*,#1168,.F.);
#1180=ORIENTED_EDGE('',*,*,#1075,.F.);
#1182=ORIENTED_EDGE('',*,*,#1181,.T.);
#1183=EDGE_LOOP('',(#1178,#1179,#1180,#1182));
#1184=FACE_OUTER_BOUND('',#1183,.F.);
#1186=CARTESIAN_POINT('',(-3.5687E0,0.E0,-6.35E0));
#1187=DIRECTION('',(0.E0,0.E0,1.E0));
#1188=DIRECTION('',(1.E0,0.E0,0.E0));
#1189=AXIS2_PLACEMENT_3D('',#1186,#1187,#1188);
#1190=PLANE('',#1189);
#1191=ORIENTED_EDGE('',*,*,#931,.T.);
#1192=ORIENTED_EDGE('',*,*,#1181,.F.);
#1193=ORIENTED_EDGE('',*,*,#1073,.F.);
#1195=ORIENTED_EDGE('',*,*,#1194,.T.);
#1196=EDGE_LOOP('',(#1191,#1192,#1193,#1195));
#1197=FACE_OUTER_BOUND('',#1196,.F.);
#1199=CARTESIAN_POINT('',(-2.3749E0,0.E0,-6.35E0));
#1200=DIRECTION('',(-1.E0,0.E0,0.E0));
#1201=DIRECTION('',(0.E0,0.E0,1.E0));
#1202=AXIS2_PLACEMENT_3D('',#1199,#1200,#1201);
#1203=PLANE('',#1202);
#1204=ORIENTED_EDGE('',*,*,#933,.T.);
#1205=ORIENTED_EDGE('',*,*,#1194,.F.);
#1206=ORIENTED_EDGE('',*,*,#1071,.F.);
#1208=ORIENTED_EDGE('',*,*,#1207,.F.);
#1209=EDGE_LOOP('',(#1204,#1205,#1206,#1208));
#1210=FACE_OUTER_BOUND('',#1209,.F.);
#1212=CARTESIAN_POINT('',(-2.3749E0,0.E0,-8.89E-1));
#1213=DIRECTION('',(-7.071067811865E-1,0.E0,7.071067811865E-1));
#1214=DIRECTION('',(7.071067811865E-1,0.E0,7.071067811865E-1));
#1215=AXIS2_PLACEMENT_3D('',#1212,#1213,#1214);
#1216=PLANE('',#1215);
#1218=ORIENTED_EDGE('',*,*,#1217,.T.);
#1220=ORIENTED_EDGE('',*,*,#1219,.F.);
#1222=ORIENTED_EDGE('',*,*,#1221,.F.);
#1223=ORIENTED_EDGE('',*,*,#1207,.T.);
#1224=EDGE_LOOP('',(#1218,#1220,#1222,#1223));
#1225=FACE_OUTER_BOUND('',#1224,.F.);
#1227=CARTESIAN_POINT('',(-3.175E0,6.306453141502E-1,0.E0));
#1228=DIRECTION('',(0.E0,-9.848077530122E-1,-1.736481776669E-1));
#1229=DIRECTION('',(0.E0,1.736481776669E-1,-9.848077530122E-1));
#1230=AXIS2_PLACEMENT_3D('',#1227,#1228,#1229);
#1231=PLANE('',#1230);
#1233=ORIENTED_EDGE('',*,*,#1232,.F.);
#1235=ORIENTED_EDGE('',*,*,#1234,.F.);
#1236=ORIENTED_EDGE('',*,*,#1217,.F.);
#1237=ORIENTED_EDGE('',*,*,#1069,.T.);
#1238=EDGE_LOOP('',(#1233,#1235,#1236,#1237));
#1239=FACE_OUTER_BOUND('',#1238,.F.);
#1241=CARTESIAN_POINT('',(1.4859E0,0.E0,0.E0));
#1242=DIRECTION('',(7.071067811865E-1,0.E0,7.071067811865E-1));
#1243=DIRECTION('',(7.071067811865E-1,0.E0,-7.071067811865E-1));
#1244=AXIS2_PLACEMENT_3D('',#1241,#1242,#1243);
#1245=PLANE('',#1244);
#1246=ORIENTED_EDGE('',*,*,#1232,.T.);
#1248=ORIENTED_EDGE('',*,*,#1247,.F.);
#1250=ORIENTED_EDGE('',*,*,#1249,.F.);
#1252=ORIENTED_EDGE('',*,*,#1251,.T.);
#1253=EDGE_LOOP('',(#1246,#1248,#1250,#1252));
#1254=FACE_OUTER_BOUND('',#1253,.F.);
#1256=CARTESIAN_POINT('',(2.3749E0,0.E0,-8.89E-1));
#1257=DIRECTION('',(1.E0,0.E0,0.E0));
#1258=DIRECTION('',(0.E0,0.E0,-1.E0));
#1259=AXIS2_PLACEMENT_3D('',#1256,#1257,#1258);
#1260=PLANE('',#1259);
#1261=ORIENTED_EDGE('',*,*,#937,.T.);
#1262=ORIENTED_EDGE('',*,*,#1247,.T.);
#1263=ORIENTED_EDGE('',*,*,#1067,.F.);
#1265=ORIENTED_EDGE('',*,*,#1264,.T.);
#1266=EDGE_LOOP('',(#1261,#1262,#1263,#1265));
#1267=FACE_OUTER_BOUND('',#1266,.F.);
#1269=CARTESIAN_POINT('',(2.3749E0,0.E0,-6.35E0));
#1270=DIRECTION('',(0.E0,0.E0,1.E0));
#1271=DIRECTION('',(1.E0,0.E0,0.E0));
#1272=AXIS2_PLACEMENT_3D('',#1269,#1270,#1271);
#1273=PLANE('',#1272);
#1274=ORIENTED_EDGE('',*,*,#939,.T.);
#1275=ORIENTED_EDGE('',*,*,#1264,.F.);
#1276=ORIENTED_EDGE('',*,*,#1065,.F.);
#1278=ORIENTED_EDGE('',*,*,#1277,.T.);
#1279=EDGE_LOOP('',(#1274,#1275,#1276,#1278));
#1280=FACE_OUTER_BOUND('',#1279,.F.);
#1282=CARTESIAN_POINT('',(3.5687E0,0.E0,-6.35E0));
#1283=DIRECTION('',(1.E0,0.E0,0.E0));
#1284=DIRECTION('',(0.E0,0.E0,-1.E0));
#1285=AXIS2_PLACEMENT_3D('',#1282,#1283,#1284);
#1286=PLANE('',#1285);
#1287=ORIENTED_EDGE('',*,*,#941,.T.);
#1288=ORIENTED_EDGE('',*,*,#1277,.F.);
#1289=ORIENTED_EDGE('',*,*,#1063,.F.);
#1291=ORIENTED_EDGE('',*,*,#1290,.T.);
#1292=EDGE_LOOP('',(#1287,#1288,#1289,#1291));
#1293=FACE_OUTER_BOUND('',#1292,.F.);
#1295=CARTESIAN_POINT('',(3.5687E0,0.E0,-7.874E0));
#1296=DIRECTION('',(0.E0,0.E0,-1.E0));
#1297=DIRECTION('',(-1.E0,0.E0,0.E0));
#1298=AXIS2_PLACEMENT_3D('',#1295,#1296,#1297);
#1299=PLANE('',#1298);
#1300=ORIENTED_EDGE('',*,*,#943,.T.);
#1301=ORIENTED_EDGE('',*,*,#1290,.F.);
#1302=ORIENTED_EDGE('',*,*,#1061,.F.);
#1304=ORIENTED_EDGE('',*,*,#1303,.T.);
#1305=EDGE_LOOP('',(#1300,#1301,#1302,#1304));
#1306=FACE_OUTER_BOUND('',#1305,.F.);
#1308=CARTESIAN_POINT('',(3.14325E0,0.E0,-7.874E0));
#1309=DIRECTION('',(1.E0,0.E0,0.E0));
#1310=DIRECTION('',(0.E0,0.E0,-1.E0));
#1311=AXIS2_PLACEMENT_3D('',#1308,#1309,#1310);
#1312=PLANE('',#1311);
#1313=ORIENTED_EDGE('',*,*,#945,.T.);
#1314=ORIENTED_EDGE('',*,*,#1303,.F.);
#1315=ORIENTED_EDGE('',*,*,#1059,.F.);
#1317=ORIENTED_EDGE('',*,*,#1316,.T.);
#1318=EDGE_LOOP('',(#1313,#1314,#1315,#1317));
#1319=FACE_OUTER_BOUND('',#1318,.F.);
#1321=CARTESIAN_POINT('',(3.14325E0,0.E0,-1.0795E1));
#1322=DIRECTION('',(9.941307983616E-1,0.E0,-1.081848221746E-1));
#1323=DIRECTION('',(-1.081848221746E-1,0.E0,-9.941307983616E-1));
#1324=AXIS2_PLACEMENT_3D('',#1321,#1322,#1323);
#1325=PLANE('',#1324);
#1327=ORIENTED_EDGE('',*,*,#1326,.T.);
#1328=ORIENTED_EDGE('',*,*,#947,.T.);
#1329=ORIENTED_EDGE('',*,*,#1316,.F.);
#1330=ORIENTED_EDGE('',*,*,#1057,.F.);
#1331=EDGE_LOOP('',(#1327,#1328,#1329,#1330));
#1332=FACE_OUTER_BOUND('',#1331,.F.);
#1334=CARTESIAN_POINT('',(2.623476997407E0,5.92606264E0,-1.26365E1));
#1335=DIRECTION('',(0.E0,-1.E0,0.E0));
#1336=DIRECTION('',(0.E0,0.E0,-1.E0));
#1337=AXIS2_PLACEMENT_3D('',#1334,#1335,#1336);
#1338=CYLINDRICAL_SURFACE('',#1337,3.175E-1);
#1339=ORIENTED_EDGE('',*,*,#1055,.T.);
#1341=ORIENTED_EDGE('',*,*,#1340,.T.);
#1342=ORIENTED_EDGE('',*,*,#949,.T.);
#1343=ORIENTED_EDGE('',*,*,#1326,.F.);
#1344=EDGE_LOOP('',(#1339,#1341,#1342,#1343));
#1345=FACE_OUTER_BOUND('',#1344,.F.);
#1347=CARTESIAN_POINT('',(2.9083E0,0.E0,-1.2954E1));
#1348=DIRECTION('',(0.E0,0.E0,-1.E0));
#1349=DIRECTION('',(-1.E0,0.E0,0.E0));
#1350=AXIS2_PLACEMENT_3D('',#1347,#1348,#1349);
#1351=PLANE('',#1350);
#1353=ORIENTED_EDGE('',*,*,#1352,.T.);
#1354=ORIENTED_EDGE('',*,*,#951,.T.);
#1355=ORIENTED_EDGE('',*,*,#1340,.F.);
#1356=ORIENTED_EDGE('',*,*,#1053,.F.);
#1357=EDGE_LOOP('',(#1353,#1354,#1355,#1356));
#1358=FACE_OUTER_BOUND('',#1357,.F.);
#1360=CARTESIAN_POINT('',(2.456523002593E0,5.92606264E0,-1.26365E1));
#1361=DIRECTION('',(0.E0,-1.E0,0.E0));
#1362=DIRECTION('',(-9.941307983616E-1,0.E0,-1.081848221746E-1));
#1363=AXIS2_PLACEMENT_3D('',#1360,#1361,#1362);
#1364=CYLINDRICAL_SURFACE('',#1363,3.175E-1);
#1365=ORIENTED_EDGE('',*,*,#1051,.T.);
#1367=ORIENTED_EDGE('',*,*,#1366,.T.);
#1368=ORIENTED_EDGE('',*,*,#953,.T.);
#1369=ORIENTED_EDGE('',*,*,#1352,.F.);
#1370=EDGE_LOOP('',(#1365,#1367,#1368,#1369));
#1371=FACE_OUTER_BOUND('',#1370,.F.);
#1373=CARTESIAN_POINT('',(2.1717E0,0.E0,-1.2954E1));
#1374=DIRECTION('',(-9.941307983616E-1,0.E0,-1.081848221746E-1));
#1375=DIRECTION('',(-1.081848221746E-1,0.E0,9.941307983616E-1));
#1376=AXIS2_PLACEMENT_3D('',#1373,#1374,#1375);
#1377=PLANE('',#1376);
#1378=ORIENTED_EDGE('',*,*,#1366,.F.);
#1379=ORIENTED_EDGE('',*,*,#1049,.F.);
#1381=ORIENTED_EDGE('',*,*,#1380,.T.);
#1382=ORIENTED_EDGE('',*,*,#955,.T.);
#1383=EDGE_LOOP('',(#1378,#1379,#1381,#1382));
#1384=FACE_OUTER_BOUND('',#1383,.F.);
#1386=CARTESIAN_POINT('',(1.93675E0,0.E0,-1.0795E1));
#1387=DIRECTION('',(-1.E0,0.E0,0.E0));
#1388=DIRECTION('',(0.E0,0.E0,1.E0));
#1389=AXIS2_PLACEMENT_3D('',#1386,#1387,#1388);
#1390=PLANE('',#1389);
#1391=ORIENTED_EDGE('',*,*,#957,.T.);
#1392=ORIENTED_EDGE('',*,*,#1380,.F.);
#1393=ORIENTED_EDGE('',*,*,#1047,.F.);
#1395=ORIENTED_EDGE('',*,*,#1394,.F.);
#1396=EDGE_LOOP('',(#1391,#1392,#1393,#1395));
#1397=FACE_OUTER_BOUND('',#1396,.F.);
#1399=CARTESIAN_POINT('',(1.68275E0,0.E0,-8.128E0));
#1400=DIRECTION('',(0.E0,1.E0,0.E0));
#1401=DIRECTION('',(1.E0,0.E0,0.E0));
#1402=AXIS2_PLACEMENT_3D('',#1399,#1400,#1401);
#1403=CYLINDRICAL_SURFACE('',#1402,2.54E-1);
#1405=ORIENTED_EDGE('',*,*,#1404,.T.);
#1406=ORIENTED_EDGE('',*,*,#959,.F.);
#1407=ORIENTED_EDGE('',*,*,#1394,.T.);
#1408=ORIENTED_EDGE('',*,*,#1045,.T.);
#1409=EDGE_LOOP('',(#1405,#1406,#1407,#1408));
#1410=FACE_OUTER_BOUND('',#1409,.F.);
#1412=CARTESIAN_POINT('',(1.241626329184E0,-3.7846E0,-9.652E0));
#1413=DIRECTION('',(-9.925461516413E-1,0.E0,1.218693434051E-1));
#1414=DIRECTION('',(1.218693434051E-1,0.E0,9.925461516413E-1));
#1415=AXIS2_PLACEMENT_3D('',#1412,#1413,#1414);
#1416=PLANE('',#1415);
#1417=ORIENTED_EDGE('',*,*,#961,.T.);
#1418=ORIENTED_EDGE('',*,*,#1404,.F.);
#1419=ORIENTED_EDGE('',*,*,#1043,.F.);
#1421=ORIENTED_EDGE('',*,*,#1420,.T.);
#1423=ORIENTED_EDGE('',*,*,#1422,.F.);
#1425=ORIENTED_EDGE('',*,*,#1424,.T.);
#1427=ORIENTED_EDGE('',*,*,#1426,.F.);
#1429=ORIENTED_EDGE('',*,*,#1428,.F.);
#1430=EDGE_LOOP('',(#1417,#1418,#1419,#1421,#1423,#1425,#1427,#1429));
#1431=FACE_OUTER_BOUND('',#1430,.F.);
#1433=CARTESIAN_POINT('',(2.54E-1,1.2954E0,-8.3566E0));
#1434=DIRECTION('',(1.E0,0.E0,0.E0));
#1435=DIRECTION('',(0.E0,-1.E0,0.E0));
#1436=AXIS2_PLACEMENT_3D('',#1433,#1434,#1435);
#1437=CYLINDRICAL_SURFACE('',#1436,5.08E-1);
#1439=ORIENTED_EDGE('',*,*,#1438,.T.);
#1440=ORIENTED_EDGE('',*,*,#1420,.F.);
#1441=ORIENTED_EDGE('',*,*,#1041,.F.);
#1443=ORIENTED_EDGE('',*,*,#1442,.T.);
#1444=EDGE_LOOP('',(#1439,#1440,#1441,#1443));
#1445=FACE_OUTER_BOUND('',#1444,.F.);
#1447=CARTESIAN_POINT('',(2.54E-1,1.9274E0,-8.8646E0));
#1448=DIRECTION('',(0.E0,0.E0,1.E0));
#1449=DIRECTION('',(0.E0,-1.E0,0.E0));
#1450=AXIS2_PLACEMENT_3D('',#1447,#1448,#1449);
#1451=PLANE('',#1450);
#1453=ORIENTED_EDGE('',*,*,#1452,.T.);
#1454=ORIENTED_EDGE('',*,*,#1422,.T.);
#1455=ORIENTED_EDGE('',*,*,#1438,.F.);
#1457=ORIENTED_EDGE('',*,*,#1456,.F.);
#1458=EDGE_LOOP('',(#1453,#1454,#1455,#1457));
#1459=FACE_OUTER_BOUND('',#1458,.F.);
#1461=CARTESIAN_POINT('',(2.54E-1,1.9274E0,-9.652E0));
#1462=DIRECTION('',(0.E0,1.E0,0.E0));
#1463=DIRECTION('',(0.E0,0.E0,1.E0));
#1464=AXIS2_PLACEMENT_3D('',#1461,#1462,#1463);
#1465=PLANE('',#1464);
#1467=ORIENTED_EDGE('',*,*,#1466,.T.);
#1468=ORIENTED_EDGE('',*,*,#1424,.F.);
#1469=ORIENTED_EDGE('',*,*,#1452,.F.);
#1471=ORIENTED_EDGE('',*,*,#1470,.T.);
#1472=EDGE_LOOP('',(#1467,#1468,#1469,#1471));
#1473=FACE_OUTER_BOUND('',#1472,.F.);
#1475=CARTESIAN_POINT('',(2.54E-1,1.2954E0,-9.652E0));
#1476=DIRECTION('',(0.E0,0.E0,-1.E0));
#1477=DIRECTION('',(0.E0,1.E0,0.E0));
#1478=AXIS2_PLACEMENT_3D('',#1475,#1476,#1477);
#1479=PLANE('',#1478);
#1481=ORIENTED_EDGE('',*,*,#1480,.T.);
#1482=ORIENTED_EDGE('',*,*,#1426,.T.);
#1483=ORIENTED_EDGE('',*,*,#1466,.F.);
#1485=ORIENTED_EDGE('',*,*,#1484,.F.);
#1486=EDGE_LOOP('',(#1481,#1482,#1483,#1485));
#1487=FACE_OUTER_BOUND('',#1486,.F.);
#1489=CARTESIAN_POINT('',(2.54E-1,1.2954E0,-8.3566E0));
#1490=DIRECTION('',(1.E0,0.E0,0.E0));
#1491=DIRECTION('',(0.E0,-1.E0,0.E0));
#1492=AXIS2_PLACEMENT_3D('',#1489,#1490,#1491);
#1493=CYLINDRICAL_SURFACE('',#1492,1.2954E0);
#1494=ORIENTED_EDGE('',*,*,#1480,.F.);
#1496=ORIENTED_EDGE('',*,*,#1495,.F.);
#1497=ORIENTED_EDGE('',*,*,#963,.T.);
#1498=ORIENTED_EDGE('',*,*,#1428,.T.);
#1499=EDGE_LOOP('',(#1494,#1496,#1497,#1498));
#1500=FACE_OUTER_BOUND('',#1499,.F.);
#1502=CARTESIAN_POINT('',(2.54E-1,-3.7846E0,-8.128E0));
#1503=DIRECTION('',(9.925461516413E-1,0.E0,1.218693434052E-1));
#1504=DIRECTION('',(1.218693434052E-1,0.E0,-9.925461516413E-1));
#1505=AXIS2_PLACEMENT_3D('',#1502,#1503,#1504);
#1506=PLANE('',#1505);
#1507=ORIENTED_EDGE('',*,*,#965,.T.);
#1508=ORIENTED_EDGE('',*,*,#1495,.T.);
#1509=ORIENTED_EDGE('',*,*,#1484,.T.);
#1510=ORIENTED_EDGE('',*,*,#1470,.F.);
#1511=ORIENTED_EDGE('',*,*,#1456,.T.);
#1512=ORIENTED_EDGE('',*,*,#1442,.F.);
#1513=ORIENTED_EDGE('',*,*,#1039,.F.);
#1515=ORIENTED_EDGE('',*,*,#1514,.F.);
#1516=EDGE_LOOP('',(#1507,#1508,#1509,#1510,#1511,#1512,#1513,#1515));
#1517=FACE_OUTER_BOUND('',#1516,.F.);
#1519=CARTESIAN_POINT('',(0.E0,0.E0,-8.128E0));
#1520=DIRECTION('',(0.E0,1.E0,0.E0));
#1521=DIRECTION('',(1.E0,0.E0,0.E0));
#1522=AXIS2_PLACEMENT_3D('',#1519,#1520,#1521);
#1523=CYLINDRICAL_SURFACE('',#1522,2.54E-1);
#1525=ORIENTED_EDGE('',*,*,#1524,.F.);
#1526=ORIENTED_EDGE('',*,*,#967,.F.);
#1527=ORIENTED_EDGE('',*,*,#1514,.T.);
#1528=ORIENTED_EDGE('',*,*,#1037,.T.);
#1529=EDGE_LOOP('',(#1525,#1526,#1527,#1528));
#1530=FACE_OUTER_BOUND('',#1529,.F.);
#1532=CARTESIAN_POINT('',(-4.411236708160E-1,-3.7846E0,-9.652E0));
#1533=DIRECTION('',(-9.925461516413E-1,0.E0,1.218693434052E-1));
#1534=DIRECTION('',(1.218693434052E-1,0.E0,9.925461516413E-1));
#1535=AXIS2_PLACEMENT_3D('',#1532,#1533,#1534);
#1536=PLANE('',#1535);
#1537=ORIENTED_EDGE('',*,*,#969,.T.);
#1538=ORIENTED_EDGE('',*,*,#1524,.T.);
#1539=ORIENTED_EDGE('',*,*,#1035,.F.);
#1541=ORIENTED_EDGE('',*,*,#1540,.F.);
#1543=ORIENTED_EDGE('',*,*,#1542,.F.);
#1545=ORIENTED_EDGE('',*,*,#1544,.F.);
#1547=ORIENTED_EDGE('',*,*,#1546,.F.);
#1549=ORIENTED_EDGE('',*,*,#1548,.T.);
#1550=EDGE_LOOP('',(#1537,#1538,#1539,#1541,#1543,#1545,#1547,#1549));
#1551=FACE_OUTER_BOUND('',#1550,.F.);
#1553=CARTESIAN_POINT('',(-1.42875E0,-5.08E-1,-8.3566E0));
#1554=DIRECTION('',(1.E0,0.E0,0.E0));
#1555=DIRECTION('',(0.E0,0.E0,1.E0));
#1556=AXIS2_PLACEMENT_3D('',#1553,#1554,#1555);
#1557=CYLINDRICAL_SURFACE('',#1556,1.2954E0);
#1559=ORIENTED_EDGE('',*,*,#1558,.F.);
#1560=ORIENTED_EDGE('',*,*,#1540,.T.);
#1561=ORIENTED_EDGE('',*,*,#1033,.T.);
#1563=ORIENTED_EDGE('',*,*,#1562,.F.);
#1564=EDGE_LOOP('',(#1559,#1560,#1561,#1563));
#1565=FACE_OUTER_BOUND('',#1564,.F.);
#1567=CARTESIAN_POINT('',(-1.42875E0,-1.14E0,-9.652E0));
#1568=DIRECTION('',(0.E0,0.E0,-1.E0));
#1569=DIRECTION('',(0.E0,1.E0,0.E0));
#1570=AXIS2_PLACEMENT_3D('',#1567,#1568,#1569);
#1571=PLANE('',#1570);
#1573=ORIENTED_EDGE('',*,*,#1572,.F.);
#1574=ORIENTED_EDGE('',*,*,#1542,.T.);
#1575=ORIENTED_EDGE('',*,*,#1558,.T.);
#1577=ORIENTED_EDGE('',*,*,#1576,.F.);
#1578=EDGE_LOOP('',(#1573,#1574,#1575,#1577));
#1579=FACE_OUTER_BOUND('',#1578,.F.);
#1581=CARTESIAN_POINT('',(-1.42875E0,-1.14E0,-8.8646E0));
#1582=DIRECTION('',(0.E0,-1.E0,0.E0));
#1583=DIRECTION('',(0.E0,0.E0,-1.E0));
#1584=AXIS2_PLACEMENT_3D('',#1581,#1582,#1583);
#1585=PLANE('',#1584);
#1587=ORIENTED_EDGE('',*,*,#1586,.F.);
#1588=ORIENTED_EDGE('',*,*,#1544,.T.);
#1589=ORIENTED_EDGE('',*,*,#1572,.T.);
#1591=ORIENTED_EDGE('',*,*,#1590,.F.);
#1592=EDGE_LOOP('',(#1587,#1588,#1589,#1591));
#1593=FACE_OUTER_BOUND('',#1592,.F.);
#1595=CARTESIAN_POINT('',(-1.42875E0,-5.08E-1,-8.8646E0));
#1596=DIRECTION('',(0.E0,0.E0,1.E0));
#1597=DIRECTION('',(0.E0,-1.E0,0.E0));
#1598=AXIS2_PLACEMENT_3D('',#1595,#1596,#1597);
#1599=PLANE('',#1598);
#1601=ORIENTED_EDGE('',*,*,#1600,.F.);
#1602=ORIENTED_EDGE('',*,*,#1546,.T.);
#1603=ORIENTED_EDGE('',*,*,#1586,.T.);
#1605=ORIENTED_EDGE('',*,*,#1604,.F.);
#1606=EDGE_LOOP('',(#1601,#1602,#1603,#1605));
#1607=FACE_OUTER_BOUND('',#1606,.F.);
#1609=CARTESIAN_POINT('',(-1.42875E0,-5.08E-1,-8.3566E0));
#1610=DIRECTION('',(1.E0,0.E0,0.E0));
#1611=DIRECTION('',(0.E0,0.E0,1.E0));
#1612=AXIS2_PLACEMENT_3D('',#1609,#1610,#1611);
#1613=CYLINDRICAL_SURFACE('',#1612,5.08E-1);
#1614=ORIENTED_EDGE('',*,*,#1600,.T.);
#1616=ORIENTED_EDGE('',*,*,#1615,.T.);
#1617=ORIENTED_EDGE('',*,*,#971,.T.);
#1618=ORIENTED_EDGE('',*,*,#1548,.F.);
#1619=EDGE_LOOP('',(#1614,#1616,#1617,#1618));
#1620=FACE_OUTER_BOUND('',#1619,.F.);
#1622=CARTESIAN_POINT('',(-1.42875E0,-3.7846E0,-8.128E0));
#1623=DIRECTION('',(9.925461516413E-1,0.E0,1.218693434052E-1));
#1624=DIRECTION('',(1.218693434052E-1,0.E0,-9.925461516413E-1));
#1625=AXIS2_PLACEMENT_3D('',#1622,#1623,#1624);
#1626=PLANE('',#1625);
#1627=ORIENTED_EDGE('',*,*,#973,.T.);
#1628=ORIENTED_EDGE('',*,*,#1615,.F.);
#1629=ORIENTED_EDGE('',*,*,#1604,.T.);
#1630=ORIENTED_EDGE('',*,*,#1590,.T.);
#1631=ORIENTED_EDGE('',*,*,#1576,.T.);
#1632=ORIENTED_EDGE('',*,*,#1562,.T.);
#1633=ORIENTED_EDGE('',*,*,#1031,.F.);
#1635=ORIENTED_EDGE('',*,*,#1634,.F.);
#1636=EDGE_LOOP('',(#1627,#1628,#1629,#1630,#1631,#1632,#1633,#1635));
#1637=FACE_OUTER_BOUND('',#1636,.F.);
#1639=CARTESIAN_POINT('',(-1.68275E0,0.E0,-8.128E0));
#1640=DIRECTION('',(0.E0,1.E0,0.E0));
#1641=DIRECTION('',(1.E0,0.E0,0.E0));
#1642=AXIS2_PLACEMENT_3D('',#1639,#1640,#1641);
#1643=CYLINDRICAL_SURFACE('',#1642,2.54E-1);
#1644=ORIENTED_EDGE('',*,*,#1634,.T.);
#1645=ORIENTED_EDGE('',*,*,#1029,.T.);
#1647=ORIENTED_EDGE('',*,*,#1646,.F.);
#1648=ORIENTED_EDGE('',*,*,#975,.F.);
#1649=EDGE_LOOP('',(#1644,#1645,#1647,#1648));
#1650=FACE_OUTER_BOUND('',#1649,.F.);
#1652=CARTESIAN_POINT('',(-1.93675E0,0.E0,-8.128E0));
#1653=DIRECTION('',(1.E0,0.E0,0.E0));
#1654=DIRECTION('',(0.E0,0.E0,-1.E0));
#1655=AXIS2_PLACEMENT_3D('',#1652,#1653,#1654);
#1656=PLANE('',#1655);
#1657=ORIENTED_EDGE('',*,*,#977,.T.);
#1658=ORIENTED_EDGE('',*,*,#1646,.T.);
#1659=ORIENTED_EDGE('',*,*,#1027,.F.);
#1661=ORIENTED_EDGE('',*,*,#1660,.T.);
#1662=EDGE_LOOP('',(#1657,#1658,#1659,#1661));
#1663=FACE_OUTER_BOUND('',#1662,.F.);
#1665=CARTESIAN_POINT('',(-1.93675E0,0.E0,-1.0795E1));
#1666=DIRECTION('',(9.941307983616E-1,0.E0,-1.081848221746E-1));
#1667=DIRECTION('',(-1.081848221746E-1,0.E0,-9.941307983616E-1));
#1668=AXIS2_PLACEMENT_3D('',#1665,#1666,#1667);
#1669=PLANE('',#1668);
#1670=ORIENTED_EDGE('',*,*,#1103,.T.);
#1671=ORIENTED_EDGE('',*,*,#979,.T.);
#1672=ORIENTED_EDGE('',*,*,#1660,.F.);
#1673=ORIENTED_EDGE('',*,*,#1025,.F.);
#1674=EDGE_LOOP('',(#1670,#1671,#1672,#1673));
#1675=FACE_OUTER_BOUND('',#1674,.F.);
#1677=CARTESIAN_POINT('',(-3.175E0,0.E0,-8.89E-1));
#1678=DIRECTION('',(0.E0,9.848077530122E-1,-1.736481776669E-1));
#1679=DIRECTION('',(0.E0,1.736481776669E-1,9.848077530122E-1));
#1680=AXIS2_PLACEMENT_3D('',#1677,#1678,#1679);
#1681=PLANE('',#1680);
#1682=ORIENTED_EDGE('',*,*,#1221,.T.);
#1684=ORIENTED_EDGE('',*,*,#1683,.T.);
#1685=ORIENTED_EDGE('',*,*,#1249,.T.);
#1686=ORIENTED_EDGE('',*,*,#935,.F.);
#1687=EDGE_LOOP('',(#1682,#1684,#1685,#1686));
#1688=FACE_OUTER_BOUND('',#1687,.F.);
#1690=CARTESIAN_POINT('',(-1.4859E0,0.E0,0.E0));
#1691=DIRECTION('',(0.E0,0.E0,1.E0));
#1692=DIRECTION('',(1.E0,0.E0,0.E0));
#1693=AXIS2_PLACEMENT_3D('',#1690,#1691,#1692);
#1694=PLANE('',#1693);
#1695=ORIENTED_EDGE('',*,*,#1234,.T.);
#1696=ORIENTED_EDGE('',*,*,#1251,.F.);
#1697=ORIENTED_EDGE('',*,*,#1683,.F.);
#1698=ORIENTED_EDGE('',*,*,#1219,.T.);
#1699=EDGE_LOOP('',(#1695,#1696,#1697,#1698));
#1700=FACE_OUTER_BOUND('',#1699,.F.);
#1702=CLOSED_SHELL('',(#989,#1004,#1017,#1093,#1107,#1120,#1133,#1146,#1159,
#1172,#1185,#1198,#1211,#1226,#1240,#1255,#1268,#1281,#1294,#1307,#1320,#1333,
#1346,#1359,#1372,#1385,#1398,#1411,#1432,#1446,#1460,#1474,#1488,#1501,#1518,
#1531,#1552,#1566,#1580,#1594,#1608,#1621,#1638,#1651,#1664,#1676,#1689,#1701));
#1703=MANIFOLD_SOLID_BREP('',#1702);
#1706=PLANE_ANGLE_MEASURE_WITH_UNIT(PLANE_ANGLE_MEASURE(1.745329251994E-2),
#1705);
#1707=(CONVERSION_BASED_UNIT('DEGREE',#1706)NAMED_UNIT(*)PLANE_ANGLE_UNIT());
#1709=UNCERTAINTY_MEASURE_WITH_UNIT(LENGTH_MEASURE(1.E-3),#1704,
'distance_accuracy_value',
'Maximum model space distance between geometric entities at asserted connectivities');
#1712=APPLICATION_CONTEXT('automotive_design');
#1713=APPLICATION_PROTOCOL_DEFINITION('international standard',
'automotive_design',2001,#1712);
#1714=PRODUCT_DEFINITION_CONTEXT('part definition',#1712,'design');
#1715=PRODUCT_CONTEXT('',#1712,'mechanical');
#1716=PRODUCT('C-1742361-1','C-1742361-1','NOT SPECIFIED',(#1715));
#1717=PRODUCT_DEFINITION_FORMATION('1','LAST_VERSION',#1716);
#1725=DERIVED_UNIT_ELEMENT(#1724,2.E0);
#1726=DERIVED_UNIT((#1725));
#1727=MEASURE_REPRESENTATION_ITEM('surface area measure',AREA_MEASURE(
1.569444903534E2),#1726);
#1732=DERIVED_UNIT_ELEMENT(#1731,3.E0);
#1733=DERIVED_UNIT((#1732));
#1734=MEASURE_REPRESENTATION_ITEM('volume measure',VOLUME_MEASURE(
4.279008547329E1),#1733);
#1738=CARTESIAN_POINT('centre point',(1.619362760510E-9,3.937000176058E-1,
-6.016652623563E0));
#1743=DERIVED_UNIT_ELEMENT(#1742,2.E0);
#1744=DERIVED_UNIT((#1743));
#1745=MEASURE_REPRESENTATION_ITEM('surface area measure',AREA_MEASURE(
1.569444903534E2),#1744);
#1750=DERIVED_UNIT_ELEMENT(#1749,3.E0);
#1751=DERIVED_UNIT((#1750));
#1752=MEASURE_REPRESENTATION_ITEM('volume measure',VOLUME_MEASURE(
4.279008547329E1),#1751);
#1756=CARTESIAN_POINT('centre point',(1.619362760510E-9,3.937000176058E-1,
-6.016652623563E0));
#1761=PRODUCT_RELATED_PRODUCT_CATEGORY('part','',(#1716));
#1=DRAUGHTING_PRE_DEFINED_COLOUR('black');
#2=COLOUR_RGB('',0.E0,0.E0,3.6E-1);
#3=COLOUR_RGB('',0.E0,0.E0,4.8E-1);
#4=DRAUGHTING_PRE_DEFINED_COLOUR('blue');
#5=COLOUR_RGB('',0.E0,5.8824E-2,4.58824E-1);
#6=COLOUR_RGB('',0.E0,1.80392E-1,4.78431E-1);
#7=COLOUR_RGB('',0.E0,3.6E-1,9.E-2);
#8=COLOUR_RGB('',0.E0,3.6E-1,2.7E-1);
#9=COLOUR_RGB('',0.E0,5.6E-1,6.4E-1);
#10=COLOUR_RGB('',0.E0,5.8E-1,8.E-1);
#11=COLOUR_RGB('',0.E0,7.1E-1,6.6E-1);
#12=COLOUR_RGB('',0.E0,7.13E-1,0.E0);
#13=COLOUR_RGB('',0.E0,9.5E-1,8.4E-1);
#14=DRAUGHTING_PRE_DEFINED_COLOUR('green');
#15=DRAUGHTING_PRE_DEFINED_COLOUR('cyan');
#16=COLOUR_RGB('',1.1765E-2,1.9608E-2,3.9216E-2);
#17=COLOUR_RGB('',4.E-2,0.E0,1.6E-1);
#18=COLOUR_RGB('',3.9216E-2,2.19608E-1,1.21569E-1);
#19=COLOUR_RGB('',3.9216E-2,3.60784E-1,2.E-1);
#20=COLOUR_RGB('',5.098E-2,7.0588E-2,1.01961E-1);
#21=COLOUR_RGB('',9.E-2,0.E0,1.2E-1);
#22=COLOUR_RGB('',9.0196E-2,1.60784E-1,1.09804E-1);
#23=COLOUR_RGB('',9.0196E-2,3.80392E-1,6.70588E-1);
#24=COLOUR_RGB('',1.E-1,0.E0,2.5E-1);
#25=COLOUR_RGB('',1.01961E-1,4.78431E-1,3.88235E-1);
#26=COLOUR_RGB('',1.09804E-1,1.4902E-1,9.0196E-2);
#27=COLOUR_RGB('',1.4902E-1,3.09804E-1,5.29412E-1);
#28=COLOUR_RGB('',1.4902E-1,4.E-1,1.60784E-1);
#29=COLOUR_RGB('',1.6E-1,3.2E-2,0.E0);
#30=COLOUR_RGB('',1.60784E-1,4.5098E-1,7.21569E-1);
#31=COLOUR_RGB('',1.6E-1,4.6E-1,6.5E-1);
#32=COLOUR_RGB('',1.6E-1,1.E0,1.6E-1);
#33=COLOUR_RGB('',2.E-1,3.2E-2,0.E0);
#34=COLOUR_RGB('',2.11765E-1,4.11765E-1,1.4902E-1);
#35=COLOUR_RGB('',2.39216E-1,2.39216E-1,2.31373E-1);
#36=COLOUR_RGB('',2.39216E-1,2.70588E-1,1.80392E-1);
#37=COLOUR_RGB('',2.5098E-1,2.90196E-1,3.29412E-1);
#38=COLOUR_RGB('',2.90196E-1,4.31373E-1,2.E-1);
#39=COLOUR_RGB('',3.1E-1,3.1E-1,5.6E-1);
#40=COLOUR_RGB('',3.09804E-1,6.58824E-1,2.E-1);
#41=COLOUR_RGB('',3.2E-1,1.5E-1,0.E0);
#42=COLOUR_RGB('',3.60784E-1,3.1373E-2,1.68627E-1);
#43=COLOUR_RGB('',3.68627E-1,2.E-1,1.21569E-1);
#44=COLOUR_RGB('',3.88235E-1,2.39216E-1,6.11765E-1);
#45=COLOUR_RGB('',4.E-1,4.E-1,4.E-1);
#46=COLOUR_RGB('',4.11765E-1,5.8824E-2,7.8431E-2);
#47=COLOUR_RGB('',4.11765E-1,3.29412E-1,2.19608E-1);
#48=COLOUR_RGB('',4.2E-1,4.2E-1,1.E0);
#49=COLOUR_RGB('',4.4E-1,8.5E-1,1.E0);
#50=COLOUR_RGB('',4.58824E-1,4.5098E-1,3.09804E-1);
#51=COLOUR_RGB('',4.70588E-1,5.09804E-1,5.4902E-1);
#52=COLOUR_RGB('',4.78431E-1,4.90196E-1,4.58824E-1);
#53=COLOUR_RGB('',4.90196E-1,3.60784E-1,2.19608E-1);
#54=COLOUR_RGB('',4.9E-1,4.9E-1,0.E0);
#55=COLOUR_RGB('',4.9E-1,1.E0,0.E0);
#56=COLOUR_RGB('',5.E-1,0.E0,0.E0);
#57=COLOUR_RGB('',5.E-1,0.E0,2.3E-1);
#58=COLOUR_RGB('',5.E-1,5.E-1,5.E-1);
#59=COLOUR_RGB('',5.21569E-1,2.19608E-1,1.68627E-1);
#60=COLOUR_RGB('',5.3E-1,0.E0,0.E0);
#61=COLOUR_RGB('',5.29412E-1,5.80392E-1,6.5098E-1);
#62=COLOUR_RGB('',5.4E-1,0.E0,4.4E-1);
#63=COLOUR_RGB('',5.5E-1,3.E-1,0.E0);
#64=COLOUR_RGB('',5.6E-1,1.E-1,5.E-2);
#65=COLOUR_RGB('',5.60784E-1,5.80392E-1,6.19608E-1);
#66=COLOUR_RGB('',5.68627E-1,5.8824E-2,4.E-1);
#67=COLOUR_RGB('',5.8E-1,2.2E-1,1.E-2);
#68=COLOUR_RGB('',5.88235E-1,1.21569E-1,1.09804E-1);
#69=COLOUR_RGB('',6.E-1,6.E-1,6.E-1);
#70=COLOUR_RGB('',6.11765E-1,5.60784E-1,3.80392E-1);
#71=COLOUR_RGB('',6.11765E-1,6.11765E-1,6.5098E-1);
#72=COLOUR_RGB('',6.2E-1,0.E0,5.5E-1);
#73=COLOUR_RGB('',6.19608E-1,6.39216E-1,6.90196E-1);
#74=COLOUR_RGB('',6.4E-1,0.E0,2.5E-1);
#75=COLOUR_RGB('',6.4E-1,1.E-2,0.E0);
#76=COLOUR_RGB('',6.39216E-1,5.4902E-1,4.78431E-1);
#77=COLOUR_RGB('',6.5098E-1,6.70588E-1,7.09804E-1);
#78=COLOUR_RGB('',6.70588E-1,1.21569E-1,1.09804E-1);
#79=COLOUR_RGB('',6.78431E-1,4.78431E-1,3.09804E-1);
#80=COLOUR_RGB('',6.8E-1,7.5E-1,1.E0);
#81=COLOUR_RGB('',6.952E-1,7.426E-1,7.9E-1);
#82=COLOUR_RGB('',7.09804E-1,7.0588E-2,2.E-1);
#83=COLOUR_RGB('',7.1E-1,3.1E-1,0.E0);
#84=COLOUR_RGB('',7.2E-1,7.2E-1,7.2E-1);
#85=COLOUR_RGB('',7.29412E-1,7.41176E-1,7.29412E-1);
#86=COLOUR_RGB('',7.41176E-1,7.29412E-1,6.70588E-1);
#87=COLOUR_RGB('',7.4E-1,1.E0,2.6E-1);
#88=COLOUR_RGB('',7.5E-1,3.E-2,0.E0);
#89=COLOUR_RGB('',7.4902E-1,8.90196E-1,7.29412E-1);
#90=COLOUR_RGB('',7.6E-1,0.E0,4.7E-1);
#91=COLOUR_RGB('',7.80392E-1,9.0196E-2,7.0588E-2);
#92=COLOUR_RGB('',7.88235E-1,2.19608E-1,5.4902E-1);
#93=COLOUR_RGB('',8.1E-1,4.E-2,0.E0);
#94=COLOUR_RGB('',8.1E-1,6.1E-1,0.E0);
#95=COLOUR_RGB('',8.2E-1,4.E-2,6.6E-1);
#96=COLOUR_RGB('',8.31373E-1,8.5098E-1,8.58824E-1);
#97=COLOUR_RGB('',8.5098E-1,7.29412E-1,5.4902E-1);
#98=COLOUR_RGB('',8.5E-1,8.5E-1,8.5E-1);
#99=COLOUR_RGB('',8.78431E-1,3.68627E-1,1.21569E-1);
#100=COLOUR_RGB('',8.784E-1,9.49E-1,1.E0);
#101=COLOUR_RGB('',8.90196E-1,5.88235E-1,1.41176E-1);
#102=COLOUR_RGB('',9.E-1,1.E0,0.E0);
#103=COLOUR_RGB('',9.09804E-1,6.11765E-1,7.09804E-1);
#104=COLOUR_RGB('',9.37E-1,7.85E-1,0.E0);
#105=COLOUR_RGB('',9.41176E-1,9.29412E-1,9.01961E-1);
#106=COLOUR_RGB('',9.5E-1,2.2E-1,8.1E-1);
#107=COLOUR_RGB('',9.6E-1,3.7E-1,3.E-1);
#108=COLOUR_RGB('',9.6E-1,7.1E-1,3.75E-1);
#109=COLOUR_RGB('',9.80392E-1,1.E0,1.E0);
#110=COLOUR_RGB('',9.88235E-1,1.09804E-1,7.8431E-2);
#111=COLOUR_RGB('',9.88235E-1,7.21569E-1,1.29412E-1);
#112=COLOUR_RGB('',9.88235E-1,9.21569E-1,8.E-1);
#113=DRAUGHTING_PRE_DEFINED_COLOUR('red');
#114=COLOUR_RGB('',1.E0,0.E0,6.1E-1);
#115=COLOUR_RGB('',1.E0,4.E-2,0.E0);
#116=COLOUR_RGB('',1.E0,2.3E-1,0.E0);
#117=COLOUR_RGB('',1.E0,3.5E-1,5.2E-1);
#118=COLOUR_RGB('',1.E0,3.6E-1,0.E0);
#119=COLOUR_RGB('',1.E0,3.88235E-1,2.11765E-1);
#120=COLOUR_RGB('',1.E0,4.9E-1,3.7E-1);
#121=COLOUR_RGB('',1.E0,5.E-1,0.E0);
#122=COLOUR_RGB('',1.E0,5.6E-1,7.8E-1);
#123=COLOUR_RGB('',1.E0,6.4E-1,4.9E-1);
#124=COLOUR_RGB('',1.E0,6.7E-1,0.E0);
#125=COLOUR_RGB('',1.E0,7.6E-1,6.5E-1);
#126=COLOUR_RGB('',1.E0,8.39216E-1,3.01961E-1);
#127=COLOUR_RGB('',1.E0,8.6E-1,4.E-2);
#128=COLOUR_RGB('',1.E0,9.60784E-1,2.58824E-1);
#129=COLOUR_RGB('',1.E0,9.60784E-1,8.90196E-1);
#130=COLOUR_RGB('',1.E0,9.8E-1,7.2E-1);
#131=DRAUGHTING_PRE_DEFINED_COLOUR('yellow');
#132=COLOUR_RGB('',1.E0,1.E0,3.9216E-2);
#133=DRAUGHTING_PRE_DEFINED_COLOUR('white');
#138=CIRCLE('',#137,6.985E-1);
#143=CIRCLE('',#142,6.985E-1);
#148=CIRCLE('',#147,3.175E-1);
#157=CIRCLE('',#156,3.175E-1);
#214=CIRCLE('',#213,3.175E-1);
#223=CIRCLE('',#222,3.175E-1);
#236=CIRCLE('',#235,2.54E-1);
#249=CIRCLE('',#248,2.54E-1);
#262=CIRCLE('',#261,2.54E-1);
#283=CIRCLE('',#282,6.985E-1);
#288=CIRCLE('',#287,6.985E-1);
#293=CIRCLE('',#292,3.175E-1);
#306=CIRCLE('',#305,2.54E-1);
#323=CIRCLE('',#322,2.54E-1);
#340=CIRCLE('',#339,2.54E-1);
#353=CIRCLE('',#352,3.175E-1);
#362=CIRCLE('',#361,3.175E-1);
#419=CIRCLE('',#418,3.175E-1);
#545=B_SPLINE_CURVE_WITH_KNOTS('',3,(#536,#537,#538,#539,#540,#541,#542,#543,
#544),.UNSPECIFIED.,.F.,.F.,(4,1,1,1,1,1,4),(0.E0,1.25E-1,2.5E-1,5.E-1,7.5E-1,
8.75E-1,1.E0),.UNSPECIFIED.);
#555=B_SPLINE_CURVE_WITH_KNOTS('',3,(#546,#547,#548,#549,#550,#551,#552,#553,
#554),.UNSPECIFIED.,.F.,.F.,(4,1,1,1,1,1,4),(0.E0,1.25E-1,2.5E-1,5.E-1,7.5E-1,
8.75E-1,1.E0),.UNSPECIFIED.);
#601=B_SPLINE_CURVE_WITH_KNOTS('',3,(#592,#593,#594,#595,#596,#597,#598,#599,
#600),.UNSPECIFIED.,.F.,.F.,(4,1,1,1,1,1,4),(0.E0,1.25E-1,2.5E-1,5.E-1,7.5E-1,
8.75E-1,1.E0),.UNSPECIFIED.);
#615=B_SPLINE_CURVE_WITH_KNOTS('',3,(#606,#607,#608,#609,#610,#611,#612,#613,
#614),.UNSPECIFIED.,.F.,.F.,(4,1,1,1,1,1,4),(0.E0,1.25E-1,2.5E-1,5.E-1,7.5E-1,
8.75E-1,1.E0),.UNSPECIFIED.);
#637=B_SPLINE_CURVE_WITH_KNOTS('',3,(#628,#629,#630,#631,#632,#633,#634,#635,
#636),.UNSPECIFIED.,.F.,.F.,(4,1,1,1,1,1,4),(0.E0,1.25E-1,2.5E-1,5.E-1,7.5E-1,
8.75E-1,1.E0),.UNSPECIFIED.);
#647=B_SPLINE_CURVE_WITH_KNOTS('',3,(#638,#639,#640,#641,#642,#643,#644,#645,
#646),.UNSPECIFIED.,.F.,.F.,(4,1,1,1,1,1,4),(0.E0,1.25E-1,2.5E-1,5.E-1,7.5E-1,
8.75E-1,1.E0),.UNSPECIFIED.);
#693=B_SPLINE_CURVE_WITH_KNOTS('',3,(#684,#685,#686,#687,#688,#689,#690,#691,
#692),.UNSPECIFIED.,.F.,.F.,(4,1,1,1,1,1,4),(0.E0,1.25E-1,2.5E-1,5.E-1,7.5E-1,
8.75E-1,1.E0),.UNSPECIFIED.);
#707=B_SPLINE_CURVE_WITH_KNOTS('',3,(#698,#699,#700,#701,#702,#703,#704,#705,
#706),.UNSPECIFIED.,.F.,.F.,(4,1,1,1,1,1,4),(0.E0,1.25E-1,2.5E-1,5.E-1,7.5E-1,
8.75E-1,1.E0),.UNSPECIFIED.);
#917=EDGE_CURVE('',#807,#805,#148,.T.);
#919=EDGE_CURVE('',#813,#807,#152,.T.);
#921=EDGE_CURVE('',#815,#813,#157,.T.);
#923=EDGE_CURVE('',#761,#815,#161,.T.);
#925=EDGE_CURVE('',#760,#761,#165,.T.);
#927=EDGE_CURVE('',#763,#760,#169,.T.);
#929=EDGE_CURVE('',#765,#763,#173,.T.);
#931=EDGE_CURVE('',#767,#765,#177,.T.);
#933=EDGE_CURVE('',#834,#767,#181,.T.);
#935=EDGE_CURVE('',#834,#835,#185,.T.);
#937=EDGE_CURVE('',#743,#835,#189,.T.);
#939=EDGE_CURVE('',#742,#743,#193,.T.);
#941=EDGE_CURVE('',#745,#742,#197,.T.);
#943=EDGE_CURVE('',#747,#745,#201,.T.);
#945=EDGE_CURVE('',#749,#747,#205,.T.);
#947=EDGE_CURVE('',#829,#749,#209,.T.);
#949=EDGE_CURVE('',#831,#829,#214,.T.);
#951=EDGE_CURVE('',#821,#831,#218,.T.);
#953=EDGE_CURVE('',#823,#821,#223,.T.);
#955=EDGE_CURVE('',#753,#823,#227,.T.);
#957=EDGE_CURVE('',#752,#753,#231,.T.);
#959=EDGE_CURVE('',#752,#875,#236,.T.);
#961=EDGE_CURVE('',#874,#875,#240,.T.);
#963=EDGE_CURVE('',#887,#874,#605,.T.);
#965=EDGE_CURVE('',#886,#887,#244,.T.);
#967=EDGE_CURVE('',#886,#883,#249,.T.);
#969=EDGE_CURVE('',#882,#883,#253,.T.);
#971=EDGE_CURVE('',#879,#882,#697,.T.);
#973=EDGE_CURVE('',#878,#879,#257,.T.);
#975=EDGE_CURVE('',#878,#757,#262,.T.);
#977=EDGE_CURVE('',#756,#757,#266,.T.);
#979=EDGE_CURVE('',#805,#756,#270,.T.);
#983=EDGE_CURVE('',#738,#739,#138,.T.);
#985=EDGE_CURVE('',#739,#738,#143,.T.);
#989=ADVANCED_FACE('',(#982,#988),#916,.F.);
#996=EDGE_CURVE('',#771,#739,#274,.T.);
#998=EDGE_CURVE('',#770,#771,#283,.T.);
#1000=EDGE_CURVE('',#770,#738,#278,.T.);
#1004=ADVANCED_FACE('',(#1003),#994,.F.);
#1012=EDGE_CURVE('',#771,#770,#288,.T.);
#1017=ADVANCED_FACE('',(#1016),#1009,.F.);
#1023=EDGE_CURVE('',#802,#803,#293,.T.);
#1025=EDGE_CURVE('',#802,#788,#297,.T.);
#1027=EDGE_CURVE('',#788,#789,#301,.T.);
#1029=EDGE_CURVE('',#894,#789,#306,.T.);
#1031=EDGE_CURVE('',#894,#895,#310,.T.);
#1033=EDGE_CURVE('',#898,#895,#314,.T.);
#1035=EDGE_CURVE('',#898,#899,#318,.T.);
#1037=EDGE_CURVE('',#902,#899,#323,.T.);
#1039=EDGE_CURVE('',#902,#903,#327,.T.);
#1041=EDGE_CURVE('',#903,#890,#331,.T.);
#1043=EDGE_CURVE('',#890,#891,#335,.T.);
#1045=EDGE_CURVE('',#784,#891,#340,.T.);
#1047=EDGE_CURVE('',#784,#785,#344,.T.);
#1049=EDGE_CURVE('',#785,#819,#348,.T.);
#1051=EDGE_CURVE('',#818,#819,#353,.T.);
#1053=EDGE_CURVE('',#818,#827,#357,.T.);
#1055=EDGE_CURVE('',#826,#827,#362,.T.);
#1057=EDGE_CURVE('',#826,#781,#366,.T.);
#1059=EDGE_CURVE('',#781,#779,#370,.T.);
#1061=EDGE_CURVE('',#779,#777,#374,.T.);
#1063=EDGE_CURVE('',#777,#774,#378,.T.);
#1065=EDGE_CURVE('',#774,#775,#382,.T.);
#1067=EDGE_CURVE('',#775,#839,#386,.T.);
#1069=EDGE_CURVE('',#838,#839,#390,.T.);
#1071=EDGE_CURVE('',#838,#799,#394,.T.);
#1073=EDGE_CURVE('',#799,#797,#398,.T.);
#1075=EDGE_CURVE('',#797,#795,#402,.T.);
#1077=EDGE_CURVE('',#795,#792,#406,.T.);
#1079=EDGE_CURVE('',#792,#793,#410,.T.);
#1081=EDGE_CURVE('',#793,#811,#414,.T.);
#1083=EDGE_CURVE('',#810,#811,#419,.T.);
#1085=EDGE_CURVE('',#810,#803,#423,.T.);
#1093=ADVANCED_FACE('',(#1088,#1092),#1022,.T.);
#1100=EDGE_CURVE('',#803,#807,#427,.T.);
#1103=EDGE_CURVE('',#802,#805,#719,.T.);
#1107=ADVANCED_FACE('',(#1106),#1098,.T.);
#1115=EDGE_CURVE('',#810,#813,#431,.T.);
#1120=ADVANCED_FACE('',(#1119),#1112,.T.);
#1127=EDGE_CURVE('',#811,#815,#435,.T.);
#1133=ADVANCED_FACE('',(#1132),#1125,.T.);
#1141=EDGE_CURVE('',#793,#761,#439,.T.);
#1146=ADVANCED_FACE('',(#1145),#1138,.T.);
#1155=EDGE_CURVE('',#792,#760,#443,.T.);
#1159=ADVANCED_FACE('',(#1158),#1151,.T.);
#1168=EDGE_CURVE('',#795,#763,#447,.T.);
#1172=ADVANCED_FACE('',(#1171),#1164,.T.);
#1181=EDGE_CURVE('',#797,#765,#451,.T.);
#1185=ADVANCED_FACE('',(#1184),#1177,.T.);
#1194=EDGE_CURVE('',#799,#767,#455,.T.);
#1198=ADVANCED_FACE('',(#1197),#1190,.T.);
#1207=EDGE_CURVE('',#834,#838,#467,.T.);
#1211=ADVANCED_FACE('',(#1210),#1203,.T.);
#1217=EDGE_CURVE('',#838,#905,#459,.T.);
#1219=EDGE_CURVE('',#907,#905,#735,.T.);
#1221=EDGE_CURVE('',#834,#907,#463,.T.);
#1226=ADVANCED_FACE('',(#1225),#1216,.T.);
#1232=EDGE_CURVE('',#909,#839,#471,.T.);
#1234=EDGE_CURVE('',#905,#909,#727,.T.);
#1240=ADVANCED_FACE('',(#1239),#1231,.F.);
#1247=EDGE_CURVE('',#835,#839,#483,.T.);
#1249=EDGE_CURVE('',#911,#835,#475,.T.);
#1251=EDGE_CURVE('',#911,#909,#479,.T.);
#1255=ADVANCED_FACE('',(#1254),#1245,.T.);
#1264=EDGE_CURVE('',#775,#743,#487,.T.);
#1268=ADVANCED_FACE('',(#1267),#1260,.T.);
#1277=EDGE_CURVE('',#774,#742,#491,.T.);
#1281=ADVANCED_FACE('',(#1280),#1273,.T.);
#1290=EDGE_CURVE('',#777,#745,#495,.T.);
#1294=ADVANCED_FACE('',(#1293),#1286,.T.);
#1303=EDGE_CURVE('',#779,#747,#499,.T.);
#1307=ADVANCED_FACE('',(#1306),#1299,.T.);
#1316=EDGE_CURVE('',#781,#749,#507,.T.);
#1320=ADVANCED_FACE('',(#1319),#1312,.T.);
#1326=EDGE_CURVE('',#826,#829,#503,.T.);
#1333=ADVANCED_FACE('',(#1332),#1325,.T.);
#1340=EDGE_CURVE('',#827,#831,#515,.T.);
#1346=ADVANCED_FACE('',(#1345),#1338,.T.);
#1352=EDGE_CURVE('',#818,#821,#511,.T.);
#1359=ADVANCED_FACE('',(#1358),#1351,.T.);
#1366=EDGE_CURVE('',#819,#823,#519,.T.);
#1372=ADVANCED_FACE('',(#1371),#1364,.T.);
#1380=EDGE_CURVE('',#785,#753,#523,.T.);
#1385=ADVANCED_FACE('',(#1384),#1377,.T.);
#1394=EDGE_CURVE('',#752,#784,#531,.T.);
#1398=ADVANCED_FACE('',(#1397),#1390,.T.);
#1404=EDGE_CURVE('',#891,#875,#527,.T.);
#1411=ADVANCED_FACE('',(#1410),#1403,.F.);
#1420=EDGE_CURVE('',#890,#871,#545,.T.);
#1422=EDGE_CURVE('',#867,#871,#563,.T.);
#1424=EDGE_CURVE('',#867,#863,#575,.T.);
#1426=EDGE_CURVE('',#859,#863,#587,.T.);
#1428=EDGE_CURVE('',#874,#859,#615,.T.);
#1432=ADVANCED_FACE('',(#1431),#1416,.F.);
#1438=EDGE_CURVE('',#870,#871,#535,.T.);
#1442=EDGE_CURVE('',#903,#870,#555,.T.);
#1446=ADVANCED_FACE('',(#1445),#1437,.F.);
#1452=EDGE_CURVE('',#866,#867,#559,.T.);
#1456=EDGE_CURVE('',#866,#870,#567,.T.);
#1460=ADVANCED_FACE('',(#1459),#1451,.T.);
#1466=EDGE_CURVE('',#862,#863,#571,.T.);
#1470=EDGE_CURVE('',#866,#862,#579,.T.);
#1474=ADVANCED_FACE('',(#1473),#1465,.T.);
#1480=EDGE_CURVE('',#858,#859,#583,.T.);
#1484=EDGE_CURVE('',#858,#862,#591,.T.);
#1488=ADVANCED_FACE('',(#1487),#1479,.T.);
#1495=EDGE_CURVE('',#887,#858,#601,.T.);
#1501=ADVANCED_FACE('',(#1500),#1493,.T.);
#1514=EDGE_CURVE('',#886,#902,#623,.T.);
#1518=ADVANCED_FACE('',(#1517),#1506,.F.);
#1524=EDGE_CURVE('',#883,#899,#619,.T.);
#1531=ADVANCED_FACE('',(#1530),#1523,.F.);
#1540=EDGE_CURVE('',#854,#898,#637,.T.);
#1542=EDGE_CURVE('',#850,#854,#655,.T.);
#1544=EDGE_CURVE('',#846,#850,#667,.T.);
#1546=EDGE_CURVE('',#842,#846,#679,.T.);
#1548=EDGE_CURVE('',#842,#882,#707,.T.);
#1552=ADVANCED_FACE('',(#1551),#1536,.F.);
#1558=EDGE_CURVE('',#854,#855,#627,.T.);
#1562=EDGE_CURVE('',#855,#895,#647,.T.);
#1566=ADVANCED_FACE('',(#1565),#1557,.T.);
#1572=EDGE_CURVE('',#850,#851,#651,.T.);
#1576=EDGE_CURVE('',#851,#855,#659,.T.);
#1580=ADVANCED_FACE('',(#1579),#1571,.T.);
#1586=EDGE_CURVE('',#846,#847,#663,.T.);
#1590=EDGE_CURVE('',#847,#851,#671,.T.);
#1594=ADVANCED_FACE('',(#1593),#1585,.T.);
#1600=EDGE_CURVE('',#842,#843,#675,.T.);
#1604=EDGE_CURVE('',#843,#847,#683,.T.);
#1608=ADVANCED_FACE('',(#1607),#1599,.T.);
#1615=EDGE_CURVE('',#843,#879,#693,.T.);
#1621=ADVANCED_FACE('',(#1620),#1613,.F.);
#1634=EDGE_CURVE('',#878,#894,#711,.T.);
#1638=ADVANCED_FACE('',(#1637),#1626,.F.);
#1646=EDGE_CURVE('',#757,#789,#715,.T.);
#1651=ADVANCED_FACE('',(#1650),#1643,.F.);
#1660=EDGE_CURVE('',#788,#756,#723,.T.);
#1664=ADVANCED_FACE('',(#1663),#1656,.T.);
#1676=ADVANCED_FACE('',(#1675),#1669,.T.);
#1683=EDGE_CURVE('',#907,#911,#731,.T.);
#1689=ADVANCED_FACE('',(#1688),#1681,.F.);
#1701=ADVANCED_FACE('',(#1700),#1694,.T.);
#1704=(LENGTH_UNIT()NAMED_UNIT(*)SI_UNIT(.MILLI.,.METRE.));
#1705=(NAMED_UNIT(*)PLANE_ANGLE_UNIT()SI_UNIT($,.RADIAN.));
#1708=(NAMED_UNIT(*)SI_UNIT($,.STERADIAN.)SOLID_ANGLE_UNIT());
#1710=(GEOMETRIC_REPRESENTATION_CONTEXT(3)GLOBAL_UNCERTAINTY_ASSIGNED_CONTEXT((
#1709))GLOBAL_UNIT_ASSIGNED_CONTEXT((#1704,#1707,#1708))REPRESENTATION_CONTEXT(
'ID1','3'));
#1711=ADVANCED_BREP_SHAPE_REPRESENTATION('',(#1703),#1710);
#1718=PRODUCT_DEFINITION('part definition','',#1717,#1714);
#1719=PRODUCT_DEFINITION_SHAPE('','SHAPE FOR C-1742361-1.',#1718);
#1720=SHAPE_ASPECT('','solid data associated with C-1742361-1',#1719,.F.);
#1721=PROPERTY_DEFINITION('',
'shape for solid data with which properties are associated',#1720);
#1722=SHAPE_REPRESENTATION('',(#1703),#1710);
#1723=SHAPE_DEFINITION_REPRESENTATION(#1721,#1722);
#1724=(LENGTH_UNIT()NAMED_UNIT(*)SI_UNIT(.MILLI.,.METRE.));
#1728=PROPERTY_DEFINITION('geometric validation property','area of C-1742361-1',
#1720);
#1729=REPRESENTATION('surface area',(#1727),#1710);
#1730=PROPERTY_DEFINITION_REPRESENTATION(#1728,#1729);
#1731=(LENGTH_UNIT()NAMED_UNIT(*)SI_UNIT(.MILLI.,.METRE.));
#1735=PROPERTY_DEFINITION('geometric validation property',
'volume of C-1742361-1',#1720);
#1736=REPRESENTATION('volume',(#1734),#1710);
#1737=PROPERTY_DEFINITION_REPRESENTATION(#1735,#1736);
#1739=PROPERTY_DEFINITION('geometric validation property',
'centroid of C-1742361-1',#1720);
#1740=REPRESENTATION('centroid',(#1738),#1710);
#1741=PROPERTY_DEFINITION_REPRESENTATION(#1739,#1740);
#1742=(LENGTH_UNIT()NAMED_UNIT(*)SI_UNIT(.MILLI.,.METRE.));
#1746=PROPERTY_DEFINITION('geometric validation property','area of C-1742361-1',
#1719);
#1747=REPRESENTATION('surface area',(#1745),#1710);
#1748=PROPERTY_DEFINITION_REPRESENTATION(#1746,#1747);
#1749=(LENGTH_UNIT()NAMED_UNIT(*)SI_UNIT(.MILLI.,.METRE.));
#1753=PROPERTY_DEFINITION('geometric validation property',
'volume of C-1742361-1',#1719);
#1754=REPRESENTATION('volume',(#1752),#1710);
#1755=PROPERTY_DEFINITION_REPRESENTATION(#1753,#1754);
#1757=PROPERTY_DEFINITION('geometric validation property',
'centroid of C-1742361-1',#1719);
#1758=REPRESENTATION('centroid',(#1756),#1710);
#1759=PROPERTY_DEFINITION_REPRESENTATION(#1757,#1758);
#1760=SHAPE_DEFINITION_REPRESENTATION(#1719,#1711);
ENDSEC;
END-ISO-10303-21;
